<?xml version="1.0" encoding="UTF-8"?>
<svg id="Capa_2" data-name="Capa 2" xmlns="http://www.w3.org/2000/svg" viewBox="0 0 461.69 68.99">
  <defs>
    <style>
      .cls-1 {
        fill: #0b67a3;
      }

      .cls-2 {
        fill: #00fe00;
      }
    </style>
  </defs>
  <g id="Capa_1-2" data-name="Capa 1">
    <g id="uuid-13d0c33b-6e0d-4630-af80-0df98dbf26e1" data-name="Capa 1-2">
      <path class="cls-2" d="M101.59,0v6.21l.12.12h19.45V.12l.13-.11c3.47-.04,6.45,2.83,6.44,6.32h19.73v12.51h12.22s.06.1.12.08v-2.23c0-.3.58-1.51.78-1.82.88-1.38,2.04-2.03,3.65-2.2.35-.04,1.5-.13,1.79-.09.11.01.36.1.36.21v6.25l-.12.12h-6.09s-.06-.1-.12-.08v12.63l-.12.12h-12.51s-.12-.11-.2-.08v-12.59h-19.49v12.59c-.08-.03-.18.08-.2.08h-12.51l-.12-.12v-12.63c-.06-.02-.1.08-.12.08h-6.82l-6.37-12.67h-6.42c-.11-3.52,2.88-6.58,6.42-6.5ZM127.5,6.5h-6.05l-6.21,12.34h12.26V6.5Z"/>
    </g>
    <path class="cls-2" d="M0,43.62h449c7,0,12.69,5.68,12.69,12.69h0c0,7-5.68,12.69-12.69,12.69H0v-25.37h0Z"/>
    <g>
      <path class="cls-1" d="M104.07,58.75c0,.74-.11,1.13-.31,1.37-.23.24-.67.36-1.79.36-.94,0-1.37-.1-1.63-.32-.25-.2-.5-.62-.7-1.25l-1.39-4.49c-.11-.35-.22-.46-.41-.46-.22,0-.26.08-.26.3v5.22c0,.79-.36.9-1.19.9h-.52c-.14,0-.22-.1-.22-.24v-5.96c0-1.01.12-1.42.4-1.67.25-.22.74-.34,1.66-.34.83,0,1.28.11,1.59.32.29.22.55.7.8,1.5l1.36,4.29c.11.35.2.44.41.44s.24-.17.24-.42v-5.17c0-.67.16-.88,1.1-.88h.62c.17,0,.23.08.23.23v6.25Z"/>
      <path class="cls-1" d="M113.12,57.06c0,1.5-.19,2.15-.7,2.64-.42.41-1.38.8-3.05.8s-2.61-.36-3.08-.89c-.41-.44-.56-1.06-.56-2.41v-4.7c0-.17.11-.23.23-.23h.94c.94,0,1.04.06,1.04,1.21v3.6c0,.72.06,1.03.26,1.26.17.17.61.31,1.2.31.62,0,1.03-.11,1.26-.3.19-.19.29-.52.29-1.27v-3.61c0-1.13.13-1.2,1.04-1.2h.88c.17,0,.25.07.25.23v4.56Z"/>
      <path class="cls-1" d="M118.87,60.05c0,.22-.07.34-.31.34h-1.64c-.16,0-.19-.1-.19-.23v-5.34c0-.74-.08-.85-.9-.85h-1.64c-.12,0-.2-.06-.2-.17,0-.54.14-1.21.34-1.37.17-.14.44-.16,1.08-.16h6.06c.18,0,.23.07.23.22,0,.58-.13,1.21-.31,1.37-.12.1-.31.11-.7.11h-1c-.7,0-.8.08-.8.88v5.21Z"/>
      <path class="cls-1" d="M122.53,52.52c0-.16.11-.2.22-.2.83-.04,1.91-.08,2.96-.08,1.93,0,2.59.12,3.01.41.46.3.72.83.72,1.8s-.26,1.57-.58,1.99c-.16.23-.22.35-.22.5,0,.2.08.5.24.95l.83,2.17c.06.18-.01.34-.2.34h-.82c-.92,0-1.2-.19-1.51-1.08l-.36-1.01c-.22-.58-.36-.68-.91-.68h-.94c-.25,0-.32.05-.32.36v2.05c0,.26-.07.36-.31.36h-1.61c-.14,0-.2-.08-.2-.24v-7.63ZM127.02,54.04c-.13-.12-.42-.17-1.14-.17-.36,0-.83.01-1.04.02-.13.01-.19.07-.19.26v1.5c0,.28.05.35.32.35h1.16c.41,0,.58-.01.72-.08.16-.06.43-.49.43-1.08,0-.42-.08-.66-.26-.8Z"/>
      <path class="cls-1" d="M137.29,59.78c-.65.5-1.81.74-2.95.74-1.63,0-2.46-.37-2.95-.84-.55-.5-.96-1.55-.96-3.36s.54-2.94,1.18-3.48c.52-.42,1.49-.77,2.94-.77,1.54,0,2.43.3,2.93.77.53.48.97,1.65.97,3.42s-.49,2.99-1.15,3.51ZM135.79,54.24c-.26-.23-.8-.32-1.32-.32-.68,0-1.13.17-1.34.36-.25.25-.54.95-.54,2.04s.22,1.74.49,2c.24.24.73.37,1.28.37.7,0,1.18-.14,1.38-.32.25-.24.52-.92.52-2.1,0-1.1-.2-1.74-.47-2.03Z"/>
      <path class="cls-1" d="M146.95,59.28c0,.54-.13.71-.53.83-.61.17-1.65.37-2.95.37-1.68,0-2.51-.31-3.02-.76s-.96-1.42-.96-3.26c0-1.97.58-2.99,1.12-3.47.53-.48,1.58-.82,3.26-.82,1.16,0,1.98.1,2.34.29.31.2.65.83.71,1.39,0,.11-.1.2-.23.19-.49-.05-1.39-.13-2.31-.13-1.25,0-1.86.16-2.15.43-.3.26-.59.95-.59,1.99,0,1.24.22,1.82.49,2.06.25.22.7.31,1.3.31.56,0,.94-.04,1.2-.08.14-.02.2-.12.2-.31v-.98c0-.16-.06-.23-.23-.23h-1.14c-.08,0-.14-.05-.14-.18,0-.25.28-1.02.52-1.19.13-.12.34-.18.76-.18h1.8c.34,0,.56.1.56.56v3.15Z"/>
      <path class="cls-1" d="M150.08,59.57c-.17.58-.42.82-1.2.82h-.94c-.12,0-.22-.11-.22-.18,0-.08.02-.2.08-.37l1.62-5.36c.36-1.19.61-1.62.88-1.85.31-.26.88-.44,1.91-.44s1.56.14,1.85.41c.24.22.48.7.8,1.86l1.58,5.53q.04.16.04.26c0,.08-.06.14-.18.14h-1.09c-.8,0-1.04-.23-1.24-.83l-.37-1.27c-.08-.26-.16-.36-.5-.36h-2.15c-.3,0-.42.1-.5.38l-.37,1.26ZM153.02,55.56l-.19-.76c-.12-.48-.23-.64-.31-.72-.08-.07-.19-.12-.42-.12s-.36.06-.44.12c-.11.08-.2.28-.35.74l-.24.79c-.06.19-.11.38-.11.44,0,.19.11.25.44.25h1.31c.38,0,.42-.08.42-.26,0-.06-.04-.24-.11-.49Z"/>
      <path class="cls-1" d="M165.91,58.75c0,.74-.11,1.13-.31,1.37-.23.24-.67.36-1.79.36-.94,0-1.37-.1-1.63-.32-.25-.2-.5-.62-.7-1.25l-1.39-4.49c-.11-.35-.22-.46-.41-.46-.22,0-.26.08-.26.3v5.22c0,.79-.36.9-1.19.9h-.52c-.14,0-.22-.1-.22-.24v-5.96c0-1.01.12-1.42.4-1.67.25-.22.74-.34,1.66-.34.83,0,1.28.11,1.59.32.29.22.55.7.8,1.5l1.36,4.29c.11.35.2.44.41.44s.24-.17.24-.42v-5.17c0-.67.16-.88,1.1-.88h.62c.17,0,.23.08.23.23v6.25Z"/>
    </g>
  </g>
</svg>