<?xml version="1.0" encoding="UTF-8"?>
<svg id="Capa_2" data-name="Capa 2" xmlns="http://www.w3.org/2000/svg" viewBox="0 0 814.55 600.34">
  <defs>
    <style>
      .cls-1 {
        fill: #fff;
        font-family: BiomePro-Bold, 'Biome Pro';
        font-size: 169.26px;
        font-weight: 700;
      }

      .cls-2 {
        fill: #00fe00;
      }
    </style>
  </defs>
  <g id="Capa_2-2" data-name="Capa 2">
    <g id="Capa_1-2" data-name="Capa 1-2">
      <path class="cls-2" d="M73.41.02v71.05l1.39,1.39h222.44V1.41l1.54-1.24c39.71-.44,73.72,32.4,73.69,72.29h225.69v143.03h139.78c.28,0,.72,1.18,1.39.93v-25.54c0-3.4,6.69-17.3,8.91-20.81,10.02-15.78,23.27-23.23,41.72-25.15,3.97-.42,17.14-1.45,20.47-.98,1.23.17,4.13,1.18,4.13,2.37v71.51l-1.39,1.39h-69.66c-.28,0-.72-1.18-1.39-.93v144.42l-1.39,1.39h-143.03c-.31,0-1.41-1.23-2.32-.93v-143.96h-222.9v143.96c-.91-.3-2.02.93-2.32.93h-143.03l-1.39-1.39v-144.42c-.68-.25-1.11.93-1.39.93h-78.02L73.41,74.32H.04C-1.26,34.01,32.97-.94,73.41.02ZM369.68,74.32h-69.19l-71.05,141.17h140.24V74.32Z"/>
    </g>
    <text class="cls-1" transform="translate(0 553.79)"><tspan x="0" y="0">nutrogan</tspan></text>
  </g>
</svg>