<svg width="179" height="179" xmlns="http://www.w3.org/2000/svg" xmlns:xlink="http://www.w3.org/1999/xlink" xml:space="preserve" overflow="hidden"><g transform="translate(-205 -267)"><path d="M289.839 304.292C260.938 304.292 237.63 327.599 237.63 356.5 237.63 365.636 240.054 374.214 244.156 381.672 248.072 377.57 252.36 373.468 257.022 368.993 268.769 357.992 282.567 346.804 294.127 338.6 294.873 338.041 295.619 337.668 296.551 337.668 298.602 337.668 300.28 339.346 300.28 341.397 300.28 342.702 299.721 343.634 298.789 344.38L298.789 344.38C282.194 356.314 260.192 374.773 245.275 391.554 245.275 391.554 243.224 393.792 242.292 394.91L242.292 394.91C233.901 404.793 228.307 413.743 228.307 420.082L239.495 420.082C239.495 415.98 246.021 407.03 255.903 396.402 265.04 404.233 276.786 408.895 289.839 408.895 299.161 408.895 308.111 406.471 315.756 401.996L315.756 401.996C355.658 379.807 360.693 338.973 360.693 293.104 360.693 293.104 317.248 305.038 289.839 304.292Z" fill="#4BFC04"/></g></svg>