<?xml version="1.0" encoding="UTF-8"?>
<svg id="Capa_2" data-name="Capa 2" xmlns="http://www.w3.org/2000/svg" viewBox="0 0 483.52 381.75">
  <defs>
    <style>
      .cls-1 {
        fill: #10f30e;
      }
    </style>
  </defs>
  <g id="Capa_2-2" data-name="Capa 2">
    <g>
      <path class="cls-1" d="M214.02,197.81C221.79,84.79,360.04.18,473.86,0c2.21,0,4.35.78,6.07,2.17h0c2.27,1.84,3.59,4.61,3.59,7.53l-3.32,75.64c0,8.95-7.19,64.74-10.71,75.63-34.81,107.64-144.69,184.7-257.9,182.08"/>
      <path class="cls-1" d="M196.48,192.05v180.3c0,6.18-5.86,10.67-11.83,9.07h0c-1.04-.28-2.03-.73-2.91-1.34-69.05-47.22-123.42-113.18-172.29-172.89-2.17-2.65-10.4-13.71-9.35-15.15"/>
    </g>
  </g>
</svg>