<?xml version="1.0" encoding="UTF-8"?>
<svg id="Capa_2" data-name="Capa 2" xmlns="http://www.w3.org/2000/svg" viewBox="0 0 587.14 587.14">
  <defs>
    <style>
      .cls-1 {
        opacity: .91;
        stroke: #0ef607;
        stroke-miterlimit: 10;
        stroke-width: 20px;
      }

      .cls-2 {
        fill: #0ef607;
      }

      .cls-3 {
        opacity: .37;
      }
    </style>
  </defs>
  <g id="Capa_2-2" data-name="Capa 2">
    <rect class="cls-1" x="10" y="10" width="567.14" height="567.14" rx="92" ry="92"/>
    <g>
      <path class="cls-2" d="M315.93,278.4s.54-.18,23.95.48c2.45.07,4.4,2.08,4.38,4.53l-.51,72.05c0,1.18-.48,2.32-1.32,3.15h-.01c-.84.86-1.99,1.33-3.18,1.33h-32.54c-1.62,0-3.07-.91-3.88-2.32-.54-.95-1.28-1.75-1.28-2.08v-43.84c0-1.19-.47-2.34-1.32-3.18h0c-.84-.84-1.99-1.32-3.18-1.32h-22.65c-1.19,0-2.34.47-3.18,1.32h0c-.84.84-1.32,1.99-1.32,3.18v43.74c0,1.19-.47,2.34-1.32,3.18h0c-.84.84-1.99,1.32-3.18,1.32h-33.19c-1.19,0-2.34-.47-3.18-1.32h0c-.84-.84-1.32-1.99-1.32-3.18v-82.18c0-3.14-3.14-5.32-6.08-4.22l-1.76.66c-2.86,1.07-5.92-.95-6.07-4-.3-6.01-1.3-12.53.89-17.45.71-1.59,2.33-2.58,4.07-2.58h96.86"/>
      <path class="cls-2" d="M371.35,227.19c1.64,0,2.83,1.55,2.42,3.14-1.28,4.96-5.05,8.9-9.88,10.91-2.5,1.04-5.41.5-7.44,1.91-.64.44-.98,1.2-.98,1.98v27.1c0,1.38-1.12,2.49-2.49,2.49h-31.29c-1.38,0-2.49-1.12-2.49-2.49v-26.66c0-1.2-.85-2.22-2.03-2.44-7.52-1.41-15.15-5.31-16.52-12.96-.28-1.55.88-2.98,2.45-2.98h68.27Z"/>
    </g>
    <g class="cls-3">
      <path class="cls-2" d="M249.12,219.62c0,2.96-2.4,5.37-5.37,5.37h-32.03c-.86.09-2.24.8-3.39,2.22-.92,1.13-1.95,2.08-1.95,4.05v125.12c0,2.96,2.4,5.37,5.37,5.37h17.05c2.96,0,5.37-2.4,5.37-5.37v-59.79c0-2.96,2.4-5.36,5.36-5.37h2.55c2.81,0,5.14,2.17,5.36,4.97,1.65,20.81.85,41.41.53,62.08-.04,2.62,1.82,4.87,4.39,5.36,5.7,1.07,15.32,1.09,20.81-.69,2.22-.72,3.73-2.78,3.73-5.11v-63.31c0-1.42.57-2.79,1.57-3.79l.06-.06c1.01-1.01,2.37-1.57,3.79-1.57h82.17c5.89,0,10.71,4.82,10.71,10.71v58.71c0,2.96,2.4,5.37,5.37,5.37h14.91c2.96,0,5.37-2.4,5.37-5.37v-63.3c0-2.54,1.78-4.74,4.26-5.26,4.62-.95,10.7-1.17,10.7,2.33v65.4c0,2.13,1.24,4.07,3.19,4.91,6,2.6,15.51,2.57,21.42,0,1.94-.84,3.17-2.79,3.17-4.9v-173.35c0-2.71,2.01-5.01,4.7-5.33.96-.12,1.95-.18,2.91-.16,2.95.07,5.31,2.52,5.25,5.47-.38,19.61.4,39.28.06,58.89-.12,6.65-2.77,16.43-2.25,24.71.42,6.86,10.72,6.45,10.72-.43v-87.38c0-5.89-4.82-10.71-10.71-10.71h-199.71c-1.42,0-2.79.57-3.79,1.57l-.06.06c-1.01,1.01-1.57,2.37-1.57,3.79v44.76Z"/>
      <path class="cls-2" d="M148.68,137.37c.44,10.96,7.75,19.87,17.67,24,5.01,2.08,11,.46,14.38,4.85v52.35s61.98,0,61.98,0v-53.42c15.43-2.02,32.59-10,32.06-27.78h-126.09Z"/>
    </g>
  </g>
</svg>