<?xml version="1.0" encoding="UTF-8"?>
<svg id="Capa_2" data-name="Capa 2" xmlns="http://www.w3.org/2000/svg" viewBox="0 0 587.14 587.14">
  <defs>
    <style>
      .cls-1 {
        opacity: .91;
        stroke: #0ef607;
        stroke-miterlimit: 10;
        stroke-width: 20px;
      }

      .cls-2 {
        fill: #0ef607;
      }
    </style>
  </defs>
  <g id="Capa_2-2" data-name="Capa 2">
    <rect class="cls-1" x="10" y="10" width="567.14" height="567.14" rx="92" ry="92"/>
    <g>
      <path class="cls-2" d="M491.69,338.82c-11.29-3.67-7.27-16.69-7.22-24.79.13-21.77-.06-43.56-.22-65.32-1.18-3.6-10.35-1.46-13.54-2.03-.8.24-2.04,2.74-2.04,3.07v158.14h-46.06c.89-9.2-.66-18.24-1.32-27.27-.12-1.66,2.44-9.09-1.71-9.09h-132.11l-1.82,1.82v34.54h-46.06v-33.33c0-.46-2.38-2.52-3.28-2.78-1.39-.41-12.23-1.43-14.32-1.46-18.06-.24-26.04,3.92-43.81-5.86-12.63-6.95-29.49-27.18-29.49-42.01v-33.33h49.09l1.82-1.82v-70.89l33.94-1.21c.85-9.07-.45-15.7-5.07-23.42-2.39-3.99-6.97-7.26-8.27-11.73h201.8c1.82,0,14.39,5,16.75,6.27,16.06,8.63,24.78,24.05,29.12,41.17.98,3.87-.15,8.2,2.61,10.72h19.39l1.82,1.82v98.76Z"/>
      <path class="cls-2" d="M97.18,209.16c-5.76-1.71,4.42-17.81,7.28-20.6,1.9-1.84,8.61-6.04,11.15-7.03,11.29-4.4,60.86-3.82,74.94-2.72,10.16.8,21.58,4.97,27.75,13.45,1.46,2,9.46,16.89,4.93,16.89h-29.09l-1.82,1.82v69.07l-1.82,1.82h-65.45c-.48,0-7.96-2.52-9.1-3.02-24.62-11-17.1-48.8,9.17-52.64,1.12-1.57,1.46-15.27-1.29-17.04h-26.66Z"/>
      <polygon class="cls-2" points="226.26 377.6 226.26 407.29 224.44 409.11 178.99 409.11 178.99 377.6 226.26 377.6"/>
      <polygon class="cls-2" points="362.01 409.11 362.01 377.6 407.46 377.6 409.27 379.42 409.27 407.29 407.46 409.11 362.01 409.11"/>
    </g>
  </g>
</svg>