<svg width="655" height="655" xmlns="http://www.w3.org/2000/svg" xmlns:xlink="http://www.w3.org/1999/xlink" xml:space="preserve" overflow="hidden"><defs><clipPath id="clip0"><rect x="4208" y="-157" width="655" height="655"/></clipPath></defs><g clip-path="url(#clip0)" transform="translate(-4208 157)"><path d="M4208 170.5C4208-10.3733 4354.63-157 4535.5-157 4716.37-157 4863-10.3733 4863 170.5 4863 351.373 4716.37 498 4535.5 498 4354.63 498 4208 351.373 4208 170.5Z" fill="#4BFC04" fill-rule="evenodd"/><g><g><g><path d="M167.2 418.979 46.0416 368.793 46.0416 69.0578 167.2 18.8725 167.2 418.979Z" transform="matrix(1 0 0 1 4351 -50.9999)"/><path d="M290.375 119.091 290.375 176.643 185.617 176.643 185.617 250.31 290.375 250.31 290.375 307.862 400.875 213.477 290.375 119.091Z" transform="matrix(1 0 0 1 4351 -50.9999)"/><path d="M235.125 158.227 262.75 158.227 262.75 66.1434 185.617 66.1434 185.617 93.7684 235.125 93.7684 235.125 158.227Z" transform="matrix(1 0 0 1 4351 -50.9999)"/><path d="M235.125 268.727 235.125 342.393 185.617 342.393 185.617 370.018 262.75 370.018 262.75 268.727 235.125 268.727Z" transform="matrix(1 0 0 1 4351 -50.9999)"/></g></g></g></g></svg>