<?xml version="1.0" encoding="UTF-8"?>
<svg id="Capa_2" data-name="Capa 2" xmlns="http://www.w3.org/2000/svg" viewBox="0 0 685.67 685.74">
  <defs>
    <style>
      .cls-1 {
        fill: #fff;
      }
    </style>
  </defs>
  <g id="Capa_1-2" data-name="Capa 1">
    <g>
      <path class="cls-1" d="M591.27,579.58C403.55,776.82,69.44,685.07,8.93,420.94-48.62,169.69,181.17-54.64,431.04,11.82c250.23,66.56,339.89,379,160.24,567.76ZM554.11,135C399.49-20.59,136.15,37.91,63.18,243.79c-78.28,220.83,118.24,439.91,345.87,388.83,224.99-50.49,308.56-333.08,145.05-497.61Z"/>
      <path class="cls-1" d="M325.73,274.57c47.53-4.22,88.6,9.25,97.09,61.16l.05,196.82c-7.79,84.56-150.62,84.92-159.86.95l-.05-196.82c3.46-32.87,29.68-59.17,62.77-62.1ZM329.71,320.51c-11.38,1.43-19.08,8.78-20.77,20.19l.09,188.73c2.48,11.71,10.65,18.45,22.41,19.55,17.39,1.63,41.66,1.99,45.35-19.55v-189.63c-3.84-22.09-29.41-21.51-47.08-19.29Z"/>
      <path class="cls-1" d="M400.5,115.78c44.73,46.19,19.13,123.61-43.55,135.07-65.73,12.02-116.29-58.65-84.49-117.45,25.33-46.83,90.9-55.96,128.04-17.61ZM339.69,137.69c-43.38,4.22-39.02,69.34,3.71,68.73,46.3-.66,43-73.27-3.71-68.73Z"/>
    </g>
  </g>
</svg>