<svg width="695" height="695" xmlns="http://www.w3.org/2000/svg" xmlns:xlink="http://www.w3.org/1999/xlink" xml:space="preserve" overflow="hidden"><defs><clipPath id="clip0"><rect x="3409" y="871" width="695" height="695"/></clipPath></defs><g clip-path="url(#clip0)" transform="translate(-3409 -871)"><path d="M3409 1218.5C3409 1026.58 3564.58 871 3756.5 871 3948.42 871 4104 1026.58 4104 1218.5 4104 1410.42 3948.42 1566 3756.5 1566 3564.58 1566 3409 1410.42 3409 1218.5Z" fill="#4BFC04" fill-rule="evenodd"/><g><g><g><path d="M371.667 306.625C371.424 294.985 365.966 284.07 356.8 276.892 336.358 260.167 310.342 249.017 284.325 241.583 264.449 235.499 243.786 232.368 223 232.292 202.236 232.65 181.613 235.775 161.675 241.583 135.692 249.165 111.185 261.105 89.2 276.892 80.0337 284.07 74.5758 294.985 74.3333 306.625L74.3333 380.958 371.667 380.958Z" transform="matrix(1 0 0 1 3533 996)"/><path d="M209.062 119.63C221.142 112.522 250.875 89.5716 250.875 89.5716L250.875 89.5716C255.567 89.9781 260.031 91.7733 263.697 94.7285 272.62 100.993 280.175 109.007 285.904 118.283 291.061 125.995 295.475 132.22 296.822 134.079L296.822 134.079 297.333 134.729 297.333 134.729C299.656 130.083 299.563 117.121 297.937 105.321 295.661 89.0606 293.802 84.2289 283.396 75.4948 276.765 69.4854 267.915 66.5353 259.005 67.3646 246.916 57.9832 232.352 52.3325 217.1 51.1041 193.871 50.2679 168.504 62.3935 157.726 76.6098 141.419 97.9806 143.231 111.918 143.231 116.889 143.231 121.86 137.517 130.501 141.512 130.501 144.114 130.501 146.669 130.501 149.271 130.501L149.271 130.501C163.998 130.083 194.056 128.457 209.062 119.63Z" transform="matrix(1 0 0 1 3533 996)"/><path d="M289.993 140.165C289.76 139.84 284.65 132.731 278.425 123.486 273.312 115.101 266.528 107.858 258.494 102.208 256.93 101.07 255.229 100.133 253.43 99.4208 245.161 105.693 223.883 121.674 213.755 127.575 197.68 136.866 168.365 139.328 148.713 139.747 149.222 180.797 182.912 213.661 223.963 213.152 260.627 212.698 291.484 185.574 296.636 149.271Z" transform="matrix(1 0 0 1 3533 996)"/></g></g></g></g></svg>