<?xml version="1.0" encoding="UTF-8"?>
<svg id="Capa_2" data-name="Capa 2" xmlns="http://www.w3.org/2000/svg" viewBox="0 0 714.24 544.45">
  <defs>
    <style>
      .cls-1 {
        fill: #fff;
      }
    </style>
  </defs>
  <g id="Capa_1-2" data-name="Capa 1">
    <g>
      <path class="cls-1" d="M194.03,74.64c4.94-.94,8.4,1.2,12.26,3.95,6.58,4.68,35.77,33.98,40.72,40.65,7.03,9.48,3.08,15.29-3.5,23.21l-130.48,129.04,130.48,130.44c7.84,9.42,10.37,14.21,2.08,24.6-6.21,7.78-31.73,33.86-39.3,39.26-4.79,3.42-9.68,6.05-15.29,2.67L0,277.88v-11.39L185.93,79.25c2.18-1.71,5.42-4.1,8.1-4.61Z"/>
      <path class="cls-1" d="M515.31,74.64c5.31-1.02,9.03,1.55,13,4.61l185.93,187.25v11.39l-185.93,187.25c-7.95,6.13-12.08,6.58-20.37.66-7.59-5.42-33.08-31.47-39.3-39.26-8.29-10.38-5.75-15.17,2.08-24.6l130.48-130.44-136.83-138.11c-1.63-5.31-.89-8.99,2.17-13.41,4.59-6.63,33.75-35.39,40.66-40.72,2.2-1.7,5.41-4.1,8.1-4.61Z"/>
      <path class="cls-1" d="M412.88.34c2.9-.5,4.86-.4,7.73,0,4.66.66,31.79,8.9,35.24,11.08,4.61,2.92,7.59,10.3,6.16,15.57l-150.9,509.94c-3.97,7.3-9.66,8.29-17.49,7.09-4.76-.73-33.05-9.35-36.08-11.61-3.94-2.95-6.7-10.19-5.3-15.02L404.18,5.69c1.99-2.97,5.21-4.75,8.7-5.35Z"/>
    </g>
  </g>
</svg>