<svg width="233" height="233" xmlns="http://www.w3.org/2000/svg" xmlns:xlink="http://www.w3.org/1999/xlink" xml:space="preserve" overflow="hidden"><g transform="translate(-730 -223)"><path d="M779.027 405.274C779.027 409.4 782.182 412.555 786.308 412.555 790.434 412.555 793.59 409.4 793.59 405.274L793.59 383.43 779.027 383.43 779.027 405.274Z" fill="#4BFC04"/><path d="M951.35 317.171 928.293 290.23C934.603 288.531 939.215 282.949 939.215 276.153L939.215 271.299C939.215 268.629 937.03 266.445 934.36 266.445 931.691 266.445 929.506 268.629 929.506 271.299L929.506 276.153C929.506 278.823 927.322 281.007 924.652 281.007L910.09 281.007C907.42 281.007 905.235 278.823 905.235 276.153L905.235 271.299C905.235 268.629 903.051 266.445 900.381 266.445 897.711 266.445 895.527 268.629 895.527 271.299L895.527 276.153C895.527 279.794 896.983 283.192 899.168 285.861L878.537 285.861 764.465 285.861C759.125 285.861 754.756 290.23 754.756 295.57 746.747 295.57 740.194 302.123 740.194 310.132L740.194 363.528C740.194 366.198 742.378 368.382 745.048 368.382 747.718 368.382 749.902 366.198 749.902 363.528L749.902 310.375C749.902 307.705 752.086 305.521 754.756 305.521L754.756 368.625 754.756 405.031C754.756 409.157 757.911 412.312 762.037 412.312 766.164 412.312 769.319 409.157 769.319 405.031L769.319 378.333 793.59 378.333C798.929 378.333 803.298 373.965 803.298 368.625L851.84 368.625 851.84 405.031C851.84 409.157 854.995 412.312 859.121 412.312 863.247 412.312 866.402 409.157 866.402 405.031L866.402 368.625 876.11 368.625 876.11 405.031C876.11 409.157 879.266 412.312 883.392 412.312 887.518 412.312 890.673 409.157 890.673 405.031L890.673 368.14C898.925 365.955 905.235 358.431 905.235 349.451 905.235 340.714 912.274 327.607 922.225 327.607 928.778 327.607 936.059 330.763 940.185 332.947 942.37 334.16 945.04 333.432 946.496 331.248L951.593 323.481C953.049 321.297 952.806 318.87 951.35 317.171Z" fill="#4BFC04"/></g></svg>