<?xml version="1.0" encoding="UTF-8"?>
<svg id="Capa_2" data-name="Capa 2" xmlns="http://www.w3.org/2000/svg" viewBox="0 0 569.29 567.26">
  <defs>
    <style>
      .cls-1 {
        fill: #10f30e;
      }
    </style>
  </defs>
  <g id="Capa_2-2" data-name="Capa 2">
    <g>
      <rect class="cls-1" x="193.16" y="480.86" width="86.4" height="86.4" rx="8.08" ry="8.08" transform="translate(-287.7 760.41) rotate(-90)"/>
      <rect class="cls-1" x="193.16" y="288.51" width="86.4" height="86.4" rx="8.08" ry="8.08" transform="translate(-95.36 568.07) rotate(-90)"/>
      <rect class="cls-1" x="193.16" y="96.17" width="86.4" height="86.4" rx="8.08" ry="8.08" transform="translate(96.99 375.73) rotate(-90)"/>
      <rect class="cls-1" x="289.74" y="384.69" width="86.4" height="86.4" rx="8.08" ry="8.08" transform="translate(-94.95 760.82) rotate(-90)"/>
      <rect class="cls-1" x="289.74" y="192.34" width="86.4" height="86.4" rx="8.08" ry="8.08" transform="translate(97.39 568.48) rotate(-90)"/>
      <rect class="cls-1" x="289.74" y="0" width="86.4" height="86.4" rx="8.08" ry="8.08" transform="translate(289.74 376.14) rotate(-90)"/>
      <rect class="cls-1" x="386.32" y="480.86" width="86.4" height="86.4" rx="8.08" ry="8.08" transform="translate(-94.54 953.57) rotate(-90)"/>
      <rect class="cls-1" x="386.32" y="288.51" width="86.4" height="86.4" rx="8.08" ry="8.08" transform="translate(97.8 761.23) rotate(-90)"/>
      <rect class="cls-1" x="386.32" y="96.17" width="86.4" height="86.4" rx="8.08" ry="8.08" transform="translate(290.14 568.89) rotate(-90)"/>
      <rect class="cls-1" x="482.89" y="384.69" width="86.4" height="86.4" rx="8.08" ry="8.08" transform="translate(98.21 953.98) rotate(-90)"/>
      <rect class="cls-1" x="482.89" y="192.34" width="86.4" height="86.4" rx="8.08" ry="8.08" transform="translate(290.55 761.64) rotate(-90)"/>
      <rect class="cls-1" x="482.89" width="86.4" height="86.4" rx="8.08" ry="8.08" transform="translate(482.89 569.29) rotate(-90)"/>
      <rect class="cls-1" x="0" y="480.86" width="86.4" height="86.4" rx="8.08" ry="8.08" transform="translate(-480.86 567.26) rotate(-90)"/>
      <rect class="cls-1" x="0" y="288.51" width="86.4" height="86.4" rx="8.08" ry="8.08" transform="translate(-288.51 374.91) rotate(-90)"/>
      <rect class="cls-1" x="0" y="96.17" width="86.4" height="86.4" rx="8.08" ry="8.08" transform="translate(-96.17 182.57) rotate(-90)"/>
      <rect class="cls-1" x="96.58" y="384.69" width="86.4" height="86.4" rx="8.08" ry="8.08" transform="translate(-288.11 567.66) rotate(-90)"/>
      <rect class="cls-1" x="96.58" y="192.34" width="86.4" height="86.4" rx="8.08" ry="8.08" transform="translate(-95.76 375.32) rotate(-90)"/>
      <rect class="cls-1" x="96.58" width="86.4" height="86.4" rx="8.08" ry="8.08" transform="translate(96.58 182.98) rotate(-90)"/>
    </g>
  </g>
</svg>