<?xml version="1.0" encoding="UTF-8"?>
<svg id="Capa_2" data-name="Capa 2" xmlns="http://www.w3.org/2000/svg" viewBox="0 0 587.14 587.14">
  <defs>
    <style>
      .cls-1 {
        opacity: .91;
        stroke: #0ef607;
        stroke-miterlimit: 10;
        stroke-width: 20px;
      }

      .cls-2 {
        fill: #0ef607;
      }
    </style>
  </defs>
  <g id="Capa_2-2" data-name="Capa 2">
    <rect class="cls-1" x="10" y="10" width="567.14" height="567.14" rx="92" ry="92"/>
    <g>
      <path class="cls-2" d="M356.72,260.78c0,3.1,2.63,5.61,5.87,5.61h35.06c.94.1,2.45.83,3.71,2.32,1.01,1.18,2.14,2.18,2.14,4.24v130.91c0,3.1-2.63,5.61-5.87,5.61h-18.66c-3.24,0-5.87-2.51-5.87-5.61v-62.55c0-3.1-2.63-5.61-5.87-5.61h-2.79c-3.08,0-5.62,2.27-5.87,5.2-1.8,21.77-.94,43.32-.58,64.95.04,2.74-1.99,5.1-4.81,5.6-6.24,1.12-16.77,1.14-22.78-.72-2.43-.75-4.08-2.91-4.08-5.35v-66.24c0-1.49-.62-2.92-1.72-3.97l-.07-.06c-1.1-1.05-2.6-1.64-4.15-1.64h-89.93c-6.45,0-11.72,5.04-11.72,11.2v61.43c0,3.1-2.63,5.61-5.87,5.61h-16.32c-3.24,0-5.87-2.51-5.87-5.61v-66.22c0-2.66-1.94-4.96-4.67-5.5-5.05-1-11.71-1.22-11.71,2.44v68.42c0,2.22-1.36,4.26-3.5,5.14-6.57,2.72-16.97,2.69-23.44,0-2.12-.88-3.47-2.91-3.47-5.13v-181.36c0-2.83-2.2-5.24-5.15-5.58-1.05-.12-2.14-.19-3.18-.16-3.23.07-5.81,2.64-5.74,5.72.42,20.52-.44,41.09-.06,61.61.13,6.95,3.03,17.19,2.47,25.85-.46,7.18-11.73,6.74-11.73-.45v-91.42c0-6.16,5.27-11.2,11.72-11.2h218.58c1.56,0,3.05.59,4.15,1.64l.07.06c1.1,1.05,1.72,2.48,1.72,3.97v46.83Z"/>
      <path class="cls-2" d="M466.66,174.73c-.48,11.46-8.48,20.79-19.34,25.11-5.48,2.18-12.03.48-15.74,5.07v54.77h-67.83v-55.89c-16.89-2.12-35.66-10.46-35.09-29.06h138Z"/>
    </g>
  </g>
</svg>