<?xml version="1.0" encoding="UTF-8"?>
<svg id="Capa_2" data-name="Capa 2" xmlns="http://www.w3.org/2000/svg" viewBox="0 0 249.33 232.47">
  <defs>
    <style>
      .cls-1 {
        fill: #10f30e;
      }
    </style>
  </defs>
  <g id="Capa_2-2" data-name="Capa 2">
    <g>
      <path class="cls-1" d="M129.61,192.07c3.45-31.42,64.87-54.94,115.43-54.99.98,0,1.93.22,2.7.6h0c1.01.51,1.6,1.28,1.6,2.09l-1.48,21.03c0,2.49-3.19,18-4.76,21.03-15.46,29.93-64.28,51.35-114.57,50.62"/>
      <path class="cls-1" d="M119.72,192.07c-3.45-31.42-64.87-54.94-115.43-54.99-.98,0-1.93.22-2.7.6h0C.59,138.19,0,138.95,0,139.77l1.48,21.03c0,2.49,3.19,18,4.76,21.03,15.46,29.93,64.28,51.35,114.57,50.62"/>
    </g>
    <g>
      <path class="cls-1" d="M125.36,111.18c2.23-29.96,41.86-52.38,74.49-52.43.63,0,1.25.21,1.74.57h0c.65.49,1.03,1.22,1.03,2l-.95,20.05c0,2.37-2.06,17.16-3.07,20.05-9.98,28.53-41.48,48.95-73.93,48.26"/>
      <path class="cls-1" d="M118.98,111.18c-2.23-29.96-41.86-52.38-74.49-52.43-.63,0-1.25.21-1.74.57h0c-.65.49-1.03,1.22-1.03,2l.95,20.05c0,2.37,2.06,17.16,3.07,20.05,9.98,28.53,41.48,48.95,73.93,48.26"/>
    </g>
    <path class="cls-1" d="M139.96,63.21c12.65-17.17,1.66-47.59-15.9-62.71-.34-.29-.77-.47-1.2-.49h0c-.58-.04-1.12.18-1.48.6l-8.76,11.25c-1.1,1.28-6.82,10.2-7.62,12.23-7.82,19.99-.28,45.57,17.53,60.2"/>
  </g>
</svg>