<?xml version="1.0" encoding="UTF-8"?>
<svg id="Capa_2" data-name="Capa 2" xmlns="http://www.w3.org/2000/svg" viewBox="0 0 1053 1053">
  <defs>
    <style>
      .cls-1 {
        fill: #2b10ff;
      }

      .cls-2 {
        fill: #00fe00;
      }
    </style>
  </defs>
  <g id="Capa_2-2" data-name="Capa 2">
    <rect class="cls-1" width="1053" height="1053" rx="92" ry="92"/>
    <g id="Capa_1-2" data-name="Capa 1-2">
      <path class="cls-2" d="M192.63,342.56v71.05l1.39,1.39h222.44v-71.05l1.54-1.24c39.71-.44,73.72,32.4,73.69,72.29h225.69v143.03h139.78c.28,0,.72,1.18,1.39.93v-25.54c0-3.4,6.69-17.3,8.91-20.81,10.02-15.78,23.27-23.23,41.72-25.15,3.97-.42,17.14-1.45,20.47-.98,1.23.17,4.13,1.18,4.13,2.37v71.51l-1.39,1.39h-69.66c-.28,0-.72-1.18-1.39-.93v144.42l-1.39,1.39h-143.03c-.31,0-1.41-1.23-2.32-.93v-143.96h-222.9v143.96c-.91-.3-2.02.93-2.32.93h-143.03l-1.39-1.39v-144.42c-.68-.25-1.11.93-1.39.93h-78.02l-72.91-144.89h-73.37c-1.3-40.31,32.93-75.26,73.37-74.3ZM488.9,416.86h-69.19l-71.05,141.17h140.24v-141.17Z"/>
    </g>
  </g>
</svg>