<?xml version="1.0" encoding="UTF-8"?>
<svg id="Capa_2" data-name="Capa 2" xmlns="http://www.w3.org/2000/svg" viewBox="0 0 513 313.62">
  <defs>
    <style>
      .cls-1 {
        fill: #10f30e;
      }
    </style>
  </defs>
  <g id="Capa_2-2" data-name="Capa 2">
    <g>
      <path class="cls-1" d="M266.68,180.8C273.77,77.5,400.14.16,504.17,0c2.02,0,3.98.71,5.55,1.98h0c2.08,1.68,3.29,4.21,3.29,6.88l-3.04,69.14c0,8.18-6.57,59.18-9.79,69.13-31.82,98.39-132.25,168.82-235.72,166.43"/>
      <path class="cls-1" d="M246.33,180.8C239.23,77.5,112.87.16,8.83,0c-2.02,0-3.98.71-5.55,1.98h0C1.21,3.66,0,6.19,0,8.86l3.04,69.14c0,8.18,6.57,59.18,9.79,69.13,31.82,98.39,132.25,168.82,235.72,166.43"/>
    </g>
  </g>
</svg>