<?xml version="1.0" encoding="UTF-8"?>
<svg id="Capa_2" data-name="Capa 2" xmlns="http://www.w3.org/2000/svg" xmlns:xlink="http://www.w3.org/1999/xlink" viewBox="0 0 2196.91 321.02">
  <defs>
    <style>
      .cls-1 {
        fill: url(#Degradado_sin_nombre_15-8);
      }

      .cls-2 {
        fill: url(#Degradado_sin_nombre_15-2);
      }

      .cls-3 {
        fill: url(#Degradado_sin_nombre_15-5);
      }

      .cls-4 {
        fill: url(#Degradado_sin_nombre_15-6);
      }

      .cls-5 {
        fill: url(#Degradado_sin_nombre_15-4);
      }

      .cls-6 {
        fill: url(#Degradado_sin_nombre_15-7);
      }

      .cls-7 {
        fill: url(#Degradado_sin_nombre_15-3);
      }

      .cls-8 {
        fill: url(#Degradado_sin_nombre_15);
      }

      .cls-9 {
        fill: #00fe00;
      }
    </style>
    <linearGradient id="Degradado_sin_nombre_15" data-name="Degradado sin nombre 15" x1="934.23" y1="261.81" x2="973.54" y2="261.81" gradientUnits="userSpaceOnUse">
      <stop offset="0" stop-color="#0b67a2"/>
      <stop offset="1" stop-color="#000"/>
    </linearGradient>
    <linearGradient id="Degradado_sin_nombre_15-2" data-name="Degradado sin nombre 15" x1="981.31" y1="262.09" x2="1015.85" y2="262.09" xlink:href="#Degradado_sin_nombre_15"/>
    <linearGradient id="Degradado_sin_nombre_15-3" data-name="Degradado sin nombre 15" x1="1019.86" y1="261.81" x2="1055.86" y2="261.81" xlink:href="#Degradado_sin_nombre_15"/>
    <linearGradient id="Degradado_sin_nombre_15-4" data-name="Degradado sin nombre 15" x1="1059.86" y1="261.7" x2="1093.55" y2="261.7" xlink:href="#Degradado_sin_nombre_15"/>
    <linearGradient id="Degradado_sin_nombre_15-5" data-name="Degradado sin nombre 15" x1="1096.79" y1="261.7" x2="1134.25" y2="261.7" xlink:href="#Degradado_sin_nombre_15"/>
    <linearGradient id="Degradado_sin_nombre_15-6" data-name="Degradado sin nombre 15" x1="1139.15" x2="1174.03" xlink:href="#Degradado_sin_nombre_15"/>
    <linearGradient id="Degradado_sin_nombre_15-7" data-name="Degradado sin nombre 15" x1="1177.7" y1="261.59" x2="1218.64" y2="261.59" xlink:href="#Degradado_sin_nombre_15"/>
    <linearGradient id="Degradado_sin_nombre_15-8" data-name="Degradado sin nombre 15" x1="1223.37" x2="1262.69" xlink:href="#Degradado_sin_nombre_15"/>
  </defs>
  <g id="Capa_1-2" data-name="Capa 1">
    <g id="uuid-0739d722-3c25-4e65-882b-fe3da37ffec4" data-name="Capa 1-2">
      <path class="cls-9" d="M966.13,0v28.43l.56.56h89V.57l.62-.5c15.89-.17,29.5,12.97,29.48,28.93h90.3v57.23h55.93c.11,0,.29.47.56.37v-10.22c0-1.36,2.68-6.92,3.56-8.33,4.01-6.31,9.31-9.29,16.69-10.06,1.59-.17,6.86-.58,8.19-.39.49.07,1.65.47,1.65.95v28.61l-.56.56h-27.87c-.11,0-.29-.47-.56-.37v57.79l-.56.56h-57.23c-.12,0-.56-.49-.93-.37v-57.6h-89.19v57.6c-.36-.12-.81.37-.93.37h-57.23l-.56-.56v-57.79c-.27-.1-.45.37-.56.37h-31.22l-29.17-57.97h-29.36c-.52-16.13,13.18-30.11,29.36-29.73ZM1084.68,29.74h-27.69l-28.43,56.49h56.11V29.74Z"/>
    </g>
    <path class="cls-9" d="M0,202.38h2137.6c32.74,0,59.32,26.58,59.32,59.32h0c0,32.74-26.58,59.32-59.32,59.32H0v-118.64h0Z"/>
    <g>
      <path class="cls-8" d="M973.54,273.14c0,3.48-.5,5.27-1.46,6.39-1.07,1.12-3.14,1.68-8.36,1.68-4.37,0-6.39-.45-7.63-1.51-1.18-.95-2.36-2.92-3.25-5.83l-6.5-20.98c-.5-1.63-1.01-2.13-1.91-2.13-1.01,0-1.24.39-1.24,1.4v24.4c0,3.7-1.68,4.21-5.55,4.21h-2.41c-.67,0-1.01-.45-1.01-1.12v-27.87c0-4.71.56-6.62,1.85-7.79,1.18-1.01,3.48-1.57,7.74-1.57,3.87,0,6,.5,7.46,1.51,1.35,1.01,2.58,3.25,3.76,7.01l6.34,20.08c.5,1.63.95,2.08,1.91,2.08s1.12-.79,1.12-1.96v-24.17c0-3.14.73-4.09,5.16-4.09h2.92c.79,0,1.07.39,1.07,1.06v29.22Z"/>
      <path class="cls-2" d="M1015.85,265.23c0,7.01-.9,10.04-3.25,12.34-1.96,1.91-6.45,3.76-14.24,3.76s-12.23-1.68-14.41-4.15c-1.91-2.08-2.63-4.94-2.63-11.27v-21.98c0-.78.5-1.06,1.07-1.06h4.37c4.37,0,4.88.28,4.88,5.66v16.82c0,3.37.28,4.82,1.24,5.89.79.79,2.86,1.46,5.61,1.46,2.92,0,4.82-.5,5.89-1.4.9-.9,1.35-2.41,1.35-5.95v-16.88c0-5.27.62-5.61,4.88-5.61h4.1c.78,0,1.18.34,1.18,1.06v21.31Z"/>
      <path class="cls-7" d="M1042.74,279.2c0,1.01-.34,1.57-1.46,1.57h-7.68c-.73,0-.9-.45-.9-1.07v-24.96c0-3.48-.39-3.98-4.21-3.98h-7.68c-.56,0-.95-.28-.95-.79,0-2.52.67-5.66,1.57-6.39.79-.67,2.08-.73,5.05-.73h28.32c.84,0,1.07.34,1.07,1.01,0,2.69-.62,5.66-1.46,6.39-.56.45-1.46.5-3.25.5h-4.65c-3.25,0-3.76.39-3.76,4.09v24.34Z"/>
      <path class="cls-5" d="M1059.86,243.98c0-.73.5-.95,1.01-.95,3.87-.17,8.92-.39,13.85-.39,9.03,0,12.11.56,14.08,1.91,2.13,1.4,3.37,3.87,3.37,8.41s-1.24,7.35-2.69,9.31c-.73,1.07-1.01,1.63-1.01,2.36,0,.95.39,2.36,1.12,4.43l3.87,10.15c.28.84-.06,1.57-.95,1.57h-3.81c-4.32,0-5.61-.9-7.07-5.05l-1.68-4.71c-1.01-2.69-1.68-3.2-4.26-3.2h-4.37c-1.18,0-1.52.22-1.52,1.68v9.59c0,1.24-.34,1.68-1.46,1.68h-7.52c-.67,0-.95-.39-.95-1.12v-35.67ZM1080.84,251.1c-.62-.56-1.96-.78-5.33-.78-1.68,0-3.87.05-4.88.11-.62.05-.9.34-.9,1.23v7.01c0,1.29.22,1.63,1.51,1.63h5.44c1.91,0,2.69-.06,3.36-.39.73-.28,2.02-2.3,2.02-5.05,0-1.96-.39-3.08-1.24-3.76Z"/>
      <path class="cls-3" d="M1128.86,277.96c-3.03,2.36-8.47,3.48-13.8,3.48-7.63,0-11.5-1.74-13.8-3.93-2.58-2.35-4.49-7.23-4.49-15.7s2.52-13.74,5.5-16.26c2.41-1.96,6.95-3.59,13.74-3.59,7.18,0,11.38,1.4,13.68,3.59,2.47,2.24,4.54,7.74,4.54,15.98s-2.3,13.96-5.38,16.43ZM1121.85,252.05c-1.23-1.07-3.76-1.51-6.17-1.51-3.2,0-5.27.79-6.28,1.68-1.18,1.18-2.52,4.43-2.52,9.53s1.01,8.13,2.3,9.37c1.12,1.12,3.42,1.74,6,1.74,3.25,0,5.5-.67,6.45-1.51,1.18-1.12,2.41-4.32,2.41-9.82,0-5.16-.95-8.13-2.19-9.48Z"/>
      <path class="cls-4" d="M1174.03,275.61c0,2.53-.62,3.31-2.47,3.87-2.86.79-7.74,1.74-13.8,1.74-7.85,0-11.72-1.46-14.13-3.53s-4.49-6.62-4.49-15.25c0-9.2,2.69-13.96,5.21-16.21,2.47-2.24,7.4-3.82,15.26-3.82,5.44,0,9.25.45,10.93,1.35,1.46.95,3.03,3.87,3.31,6.5,0,.5-.45.95-1.06.9-2.3-.22-6.51-.62-10.82-.62-5.83,0-8.69.73-10.04,2.02-1.4,1.23-2.75,4.43-2.75,9.31,0,5.78,1.01,8.53,2.3,9.65,1.18,1.01,3.25,1.46,6.06,1.46,2.63,0,4.37-.17,5.61-.39.67-.11.95-.56.95-1.46v-4.6c0-.73-.28-1.07-1.06-1.07h-5.33c-.39,0-.67-.22-.67-.84,0-1.18,1.29-4.77,2.41-5.55.62-.56,1.57-.84,3.53-.84h8.41c1.57,0,2.63.45,2.63,2.63v14.75Z"/>
      <path class="cls-6" d="M1188.69,276.95c-.78,2.69-1.96,3.81-5.61,3.81h-4.37c-.56,0-1.01-.5-1.01-.84,0-.39.11-.95.39-1.74l7.57-25.07c1.68-5.55,2.86-7.57,4.09-8.64,1.46-1.23,4.09-2.08,8.92-2.08s7.29.67,8.64,1.91c1.12,1.01,2.24,3.25,3.76,8.69l7.4,25.85q.17.73.17,1.23c0,.39-.28.67-.84.67h-5.1c-3.76,0-4.88-1.07-5.78-3.87l-1.74-5.94c-.39-1.24-.73-1.68-2.36-1.68h-10.04c-1.4,0-1.96.45-2.36,1.79l-1.74,5.89ZM1202.43,258.22l-.9-3.53c-.56-2.24-1.06-2.97-1.46-3.36-.39-.34-.9-.56-1.96-.56s-1.68.28-2.08.56c-.5.39-.95,1.29-1.63,3.48l-1.12,3.7c-.28.9-.5,1.79-.5,2.08,0,.9.5,1.18,2.07,1.18h6.11c1.79,0,1.96-.39,1.96-1.23,0-.28-.17-1.12-.5-2.3Z"/>
      <path class="cls-1" d="M1262.69,273.14c0,3.48-.5,5.27-1.46,6.39-1.07,1.12-3.14,1.68-8.36,1.68-4.37,0-6.39-.45-7.63-1.51-1.18-.95-2.36-2.92-3.25-5.83l-6.5-20.98c-.5-1.63-1.01-2.13-1.91-2.13-1.01,0-1.24.39-1.24,1.4v24.4c0,3.7-1.68,4.21-5.55,4.21h-2.41c-.67,0-1.01-.45-1.01-1.12v-27.87c0-4.71.56-6.62,1.85-7.79,1.18-1.01,3.48-1.57,7.74-1.57,3.87,0,6,.5,7.46,1.51,1.35,1.01,2.58,3.25,3.76,7.01l6.34,20.08c.5,1.63.95,2.08,1.91,2.08s1.12-.79,1.12-1.96v-24.17c0-3.14.73-4.09,5.16-4.09h2.92c.79,0,1.07.39,1.07,1.06v29.22Z"/>
    </g>
  </g>
</svg>