<?xml version="1.0" encoding="UTF-8"?>
<svg id="Capa_2" data-name="Capa 2" xmlns="http://www.w3.org/2000/svg" viewBox="0 0 814.55 596.28">
  <defs>
    <style>
      .cls-1 {
        fill: #fff;
      }

      .cls-2 {
        fill: #00fe00;
      }
    </style>
  </defs>
  <g id="Capa_2-2" data-name="Capa 2">
    <g id="Capa_1-2" data-name="Capa 1-2">
      <path class="cls-2" d="M73.41.02v71.05l1.39,1.39h222.44V1.41l1.54-1.24c39.71-.44,73.72,32.4,73.69,72.29h225.69v143.03h139.78c.28,0,.72,1.18,1.39.93v-25.54c0-3.4,6.69-17.3,8.91-20.81,10.02-15.78,23.27-23.23,41.72-25.15,3.97-.42,17.14-1.45,20.47-.98,1.23.17,4.13,1.18,4.13,2.37v71.51l-1.39,1.39h-69.66c-.28,0-.72-1.18-1.39-.93v144.42l-1.39,1.39h-143.03c-.31,0-1.41-1.23-2.32-.93v-143.96h-222.9v143.96c-.91-.3-2.02.93-2.32.93h-143.03l-1.39-1.39v-144.42c-.68-.25-1.11.93-1.39.93h-78.02L73.41,74.32H.04C-1.26,34.01,32.97-.94,73.41.02ZM369.68,74.32h-69.19l-71.05,141.17h140.24V74.32Z"/>
    </g>
    <g>
      <path class="cls-1" d="M100.2,550.75c0,2.37-1.02,3.05-3.05,3.05h-23.36c-2.88,0-3.22-1.35-3.22-4.06v-44.68c0-7.96-.51-11.85-2.2-14.05-2.03-2.37-5.25-3.38-11.85-3.38-5.59,0-9.65.51-13.03,1.02-2.54.51-3.05,1.18-3.05,5.75v56.19c0,2.37-1.02,3.22-3.05,3.22H13.2c-2.03,0-2.37-1.18-2.37-3.38v-79.89c0-2.03.85-2.71,3.05-3.05,11.51-1.52,28.1-3.22,44.68-3.22,21.16,0,30.63,3.22,35.04,7.95,4.91,5.08,6.6,11,6.6,27.42v51.11Z"/>
      <path class="cls-1" d="M209.7,548.04c0,2.03-.85,2.71-3.05,3.22-9.48,2.03-25.39,3.72-41.81,3.72-21.49,0-32.67-3.05-38.25-8.8-4.91-5.42-6.26-12.02-6.26-27.93v-49.76c0-2.2,1.18-3.05,3.05-3.05h23.02c3.05,0,3.72,1.35,3.72,4.23v45.19c0,7.28.68,10.83,2.37,13.03,2.03,2.37,6.26,3.55,13.2,3.55,4.4,0,7.79-.17,10.32-.51,3.05-.85,4.23-2.03,4.23-5.92v-56.53c0-2.2.85-3.05,3.05-3.05h23.86c2.03,0,2.54,1.02,2.54,3.38v79.21Z"/>
      <path class="cls-1" d="M237.97,458.34c0-5.59,1.02-8.97,2.88-10.66,2.2-2.37,10.16-4.91,23.53-6.09,1.69-.17,3.39.68,3.39,2.88v10.32c0,9.65.68,10.66,9.31,10.66h23.36c2.37,0,3.39,1.18,3.39,3.05-.17,7.11-4.74,15.74-7.45,17.77-1.86.85-4.23,1.19-8.12,1.19h-13.03c-6.77,0-7.45,1.86-7.45,8.12v21.33c0,7.62.68,10.49,2.2,12.19,1.69,1.86,4.74,2.54,13.88,2.54,6.26,0,10.66-.51,14.73-.68,1.69-.17,2.88.85,2.71,2.88-.34,7.28-4.4,14.39-8.12,16.92-2.54,1.86-8.97,3.72-23.36,3.72s-22.34-2.37-26.23-6.43c-4.23-4.06-5.58-10.15-5.58-25.89v-26.74c0-7.11-.85-7.95-6.77-7.95h-6.26c-2.03,0-2.88-1.35-2.88-3.05,0-5.75,2.88-15.57,5.92-17.94,1.18-.85,2.54-1.02,4.06-1.02h2.37c2.54,0,3.55-1.18,3.55-3.05v-4.06Z"/>
      <path class="cls-1" d="M314.98,470.01c0-2.2.85-3.05,3.05-3.38,9.99-1.18,22-2.37,32.5-2.37,12.02,0,20.48.51,24.37,2.71,4.23,2.71,7.28,9.82,7.28,19.46,0,1.86-1.35,3.05-3.05,3.05-3.72-.34-9.82-.85-15.06-.85-4.57,0-10.32.17-14.56.68-3.89.68-5.08,1.18-5.08,6.6v54.67c0,2.03-1.02,3.22-3.39,3.22h-23.53c-2.2,0-2.54-1.18-2.54-3.38v-80.39Z"/>
      <path class="cls-1" d="M471.54,547.36c-6.77,5.58-18.79,8.8-35.88,8.8s-29.28-4.06-35.54-10.15c-5.59-5.92-10.16-15.91-10.16-35.04s5.75-32.33,13.37-38.42c7.11-5.58,17.77-8.8,35.88-8.8s29.28,3.38,35.2,9.48c6.09,5.92,10.66,16.59,10.66,35.2,0,20.65-6.77,33.34-13.54,38.93ZM451.91,490.83c-2.03-2.54-6.94-3.89-13.54-3.89-7.11,0-12.19,1.35-14.56,3.89-2.2,2.71-4.91,8.97-4.91,19.29,0,9.14,1.52,15.91,4.23,18.96,2.71,2.71,7.95,3.72,13.71,3.72,6.77,0,11-1.02,13.54-3.22,3.22-2.54,5.59-9.65,5.59-20.14,0-9.65-1.35-15.4-4.06-18.62Z"/>
      <path class="cls-1" d="M586.98,466.46c1.86.17,3.05,1.52,3.05,3.05,0,23.7-3.55,42.31-11.68,49.59-5.08,4.57-13.2,7.11-34.7,7.79-9.48.17-12.36.51-13.71,1.18-1.02.68-1.35,3.72-1.35,6.6,0,1.69.68,2.54,2.37,2.37,3.38,0,12.69-.17,22.68-.17,20.14,0,29.11,1.35,32.67,3.72,3.22,2.37,5.75,8.12,5.75,19.12,0,14.05-4.23,24.03-9.14,28.1-6.43,5.25-19.13,8.46-40.45,8.46-18.62,0-30.63-1.69-35.2-5.25-4.4-3.05-6.6-10.66-7.11-16.92,0-1.69,1.35-2.54,3.05-2.54,7.96.85,19.8,2.03,33.17,2.03,15.06,0,22.68-1.19,24.2-2.71,1.52-1.02,2.54-3.39,2.54-6.6,0-2.71-1.02-4.57-2.2-4.91-.85-.51-5.25-.85-21.49-.85-11.85,0-25.56.34-35.03.34-1.69,0-2.88-.68-2.88-2.71,0-10.49,2.2-24.54,2.2-29.28,0-7.11-2.37-16.08-2.37-29.28,0-11.85,2.54-20.48,7.79-25.22,5.75-4.74,16.25-7.79,42.14-7.79,15.57,0,28.6,1.19,35.71,1.86ZM530.95,505.73c.68.85,4.74.85,8.46.85,10.83,0,15.06-1.69,16.59-3.05,2.88-1.86,4.74-6.94,4.74-13.71,0-1.86-.34-3.05-2.54-3.38-3.05-.34-5.92-.68-11.68-.68-8.12,0-13.2.85-14.89,2.54-1.86,1.69-2.54,4.23-2.54,8.29,0,4.4.85,8.63,1.86,9.14Z"/>
      <path class="cls-1" d="M690.22,549.56c0,2.03-1.02,2.88-2.71,3.05-9.31,1.35-23.69,2.37-38.59,2.37-23.36,0-33.85-2.88-38.59-7.11-3.22-3.38-6.09-10.16-6.09-20.65s2.71-18.11,6.6-21.33c4.4-3.05,25.22-4.74,47.73-6.26,1.86-.17,2.54-1.18,2.54-2.88,0-3.55-.85-6.43-2.71-7.96-1.86-1.69-6.43-2.2-15.74-2.2-12.86,0-25.22.85-31.31,1.86-1.52,0-3.05-1.18-2.88-2.88.51-5.92,4.4-13.54,8.12-16.25,4.57-3.38,16.25-5.25,33.34-5.25s27.93,2.03,32.67,6.43c5.08,4.57,7.62,11.51,7.62,32.33v46.71ZM660.77,519.61c0-2.37-1.02-2.71-2.88-2.71-7.96,0-20.82,1.02-22.68,2.2-1.35,1.18-1.86,3.05-1.86,6.6,0,3.22.68,5.42,2.2,6.6,1.86,1.35,5.59,2.37,12.36,2.37,5.25,0,10.32-.68,11.17-1.35,1.19-1.02,1.69-1.52,1.69-5.42v-8.29Z"/>
      <path class="cls-1" d="M800.74,550.75c0,2.37-1.02,3.05-3.05,3.05h-23.36c-2.88,0-3.22-1.35-3.22-4.06v-44.68c0-7.96-.51-11.85-2.2-14.05-2.03-2.37-5.25-3.38-11.85-3.38-5.59,0-9.65.51-13.03,1.02-2.54.51-3.05,1.18-3.05,5.75v56.19c0,2.37-1.02,3.22-3.05,3.22h-24.2c-2.03,0-2.37-1.18-2.37-3.38v-79.89c0-2.03.85-2.71,3.05-3.05,11.51-1.52,28.1-3.22,44.68-3.22,21.16,0,30.63,3.22,35.04,7.95,4.91,5.08,6.6,11,6.6,27.42v51.11Z"/>
    </g>
  </g>
</svg>