<?xml version="1.0" encoding="UTF-8"?>
<svg id="Capa_2" data-name="Capa 2" xmlns="http://www.w3.org/2000/svg" viewBox="0 0 462.74 459.44">
  <defs>
    <style>
      .cls-1 {
        fill: #0ef607;
      }
    </style>
  </defs>
  <g id="Capa_2-2" data-name="Capa 2">
    <g>
      <path class="cls-1" d="M215.36,459.44C102.11,457.44,4.45,360.37,3.08,247.2c-.05-4.47,3.6-8.1,8.07-8.1h204.29c2.14,0,4.19.85,5.7,2.36h0c1.51,1.51,2.36,3.56,2.36,5.7v204.22c0,4.48-3.66,8.15-8.15,8.07Z"/>
      <path class="cls-1" d="M250.57,220.21c-3.87,0-7.22-2.74-7.92-6.54-.48-2.58-.45-5.39-.37-7.46,3.1-86.04,66.4-166.29,146.44-193.79,18.9-6.49,49.13-16.94,68.61-10.3,3.25,1.11,5.42,4.19,5.42,7.63v202.39c0,2.14-.85,4.19-2.36,5.7h0c-1.51,1.51-3.56,2.36-5.7,2.36h-204.11Z"/>
      <path class="cls-1" d="M194.6,220.21H8.06c-2.14,0-4.19-.85-5.7-2.36h0c-1.51-1.51-2.36-3.56-2.36-5.7V25.64c0-7.18,8.68-10.78,13.76-5.7l186.54,186.51c5.08,5.08,1.48,13.76-5.7,13.76Z"/>
      <polygon class="cls-1" points="456.45 239.1 242.39 453.12 242.39 239.1 456.45 239.1"/>
    </g>
  </g>
</svg>