<?xml version="1.0" encoding="UTF-8"?>
<svg id="Capa_2" data-name="Capa 2" xmlns="http://www.w3.org/2000/svg" viewBox="0 0 458.6 430.76">
  <defs>
    <style>
      .cls-1 {
        fill: #10f30e;
      }
    </style>
  </defs>
  <g id="Capa_2-2" data-name="Capa 2">
    <g>
      <path class="cls-1" d="M221.04,219.92v200.39c0,6.87-6.52,11.86-13.15,10.08h0c-1.15-.31-2.25-.81-3.24-1.49-76.75-52.48-137.17-125.79-191.49-192.15-2.41-2.94-11.56-15.23-10.39-16.83"/>
      <path class="cls-1" d="M240.23,219.92v200.39c0,6.87,6.52,11.86,13.15,10.08h0c1.15-.31,2.25-.81,3.24-1.49,76.75-52.48,137.17-125.79,191.49-192.15,2.41-2.94,11.56-15.23,10.39-16.83"/>
      <path class="cls-1" d="M207.66,205.16H11.01C4.88,205.16-.09,200.16,0,194.04,1.52,96.49,106.72-2.44,208.02.05c2.39.06,4.69.95,6.55,2.45h0c2.58,2.09,4.08,5.23,4.08,8.55v183.12c0,6.07-4.92,10.99-10.99,10.99Z"/>
    </g>
  </g>
</svg>