<?xml version="1.0" encoding="UTF-8"?>
<svg id="Capa_2" data-name="Capa 2" xmlns="http://www.w3.org/2000/svg" viewBox="0 0 569.29 567.26">
  <defs>
    <style>
      .cls-1 {
        fill: #10f30e;
      }
    </style>
  </defs>
  <g id="Capa_2-2" data-name="Capa 2">
    <rect class="cls-1" x="193.16" y="480.86" width="86.4" height="86.4" rx="8.08" ry="8.08" transform="translate(-287.7 760.41) rotate(-90)"/>
    <rect class="cls-1" x="193.16" y="0" width="86.4" height="86.4" rx="8.08" ry="8.08" transform="translate(193.16 279.56) rotate(-90)"/>
    <rect class="cls-1" x="289.74" y="480.86" width="86.4" height="86.4" rx="8.08" ry="8.08" transform="translate(-191.12 856.99) rotate(-90)"/>
    <rect class="cls-1" x="289.74" y="0" width="86.4" height="86.4" rx="8.08" ry="8.08" transform="translate(289.74 376.14) rotate(-90)"/>
    <rect class="cls-1" x="386.32" y="480.86" width="86.4" height="86.4" rx="8.08" ry="8.08" transform="translate(-94.54 953.57) rotate(-90)"/>
    <rect class="cls-1" x="386.32" y="0" width="86.4" height="86.4" rx="8.08" ry="8.08" transform="translate(386.32 472.72) rotate(-90)"/>
    <path class="cls-1" d="M526.09,567.26h-35.12c-4.46,0-8.08-3.62-8.08-8.08v-70.24c0-4.46,3.62-8.08,8.08-8.08h70.24c4.46,0,8.08,3.62,8.08,8.08v70.24c0,4.46-3.62,8.08-8.08,8.08h-35.12"/>
    <rect class="cls-1" x="482.89" y="384.69" width="86.4" height="86.4" rx="8.08" ry="8.08" transform="translate(98.21 953.98) rotate(-90)"/>
    <rect class="cls-1" x="482.89" y="288.51" width="86.4" height="86.4" rx="8.08" ry="8.08" transform="translate(194.38 857.81) rotate(-90)"/>
    <rect class="cls-1" x="482.89" y="192.34" width="86.4" height="86.4" rx="8.08" ry="8.08" transform="translate(290.55 761.64) rotate(-90)"/>
    <rect class="cls-1" x="482.89" y="96.17" width="86.4" height="86.4" rx="8.08" ry="8.08" transform="translate(386.72 665.47) rotate(-90)"/>
    <rect class="cls-1" x="482.89" y="0" width="86.4" height="86.4" rx="8.08" ry="8.08" transform="translate(482.89 569.29) rotate(-90)"/>
    <rect class="cls-1" x="0" y="480.86" width="86.4" height="86.4" rx="8.08" ry="8.08" transform="translate(-480.86 567.26) rotate(-90)"/>
    <rect class="cls-1" x="0" y="384.69" width="86.4" height="86.4" rx="8.08" ry="8.08" transform="translate(-384.69 471.09) rotate(-90)"/>
    <rect class="cls-1" x="0" y="288.51" width="86.4" height="86.4" rx="8.08" ry="8.08" transform="translate(-288.51 374.91) rotate(-90)"/>
    <rect class="cls-1" x="0" y="192.34" width="86.4" height="86.4" rx="8.08" ry="8.08" transform="translate(-192.34 278.74) rotate(-90)"/>
    <rect class="cls-1" x="0" y="96.17" width="86.4" height="86.4" rx="8.08" ry="8.08" transform="translate(-96.17 182.57) rotate(-90)"/>
    <rect class="cls-1" x="0" y="0" width="86.4" height="86.4" rx="8.08" ry="8.08" transform="translate(0 86.4) rotate(-90)"/>
    <rect class="cls-1" x="96.58" y="480.86" width="86.4" height="86.4" rx="8.08" ry="8.08" transform="translate(-384.28 663.84) rotate(-90)"/>
    <rect class="cls-1" x="96.58" width="86.4" height="86.4" rx="8.08" ry="8.08" transform="translate(96.58 182.98) rotate(-90)"/>
    <g>
      <path class="cls-1" d="M290.63,345.29c3.45-31.42,64.87-54.94,115.43-54.99.98,0,1.93.22,2.7.6h0c1.01.51,1.6,1.28,1.6,2.09l-1.48,21.03c0,2.49-3.19,18-4.76,21.03-15.46,29.93-64.28,51.35-114.57,50.62"/>
      <path class="cls-1" d="M280.75,345.29c-3.45-31.42-64.87-54.94-115.43-54.99-.98,0-1.93.22-2.7.6h0c-1.01.51-1.6,1.28-1.6,2.09l1.48,21.03c0,2.49,3.19,18,4.76,21.03,15.46,29.93,64.28,51.35,114.57,50.62"/>
    </g>
    <g>
      <path class="cls-1" d="M286.39,264.41c2.23-29.96,41.86-52.38,74.49-52.43.63,0,1.25.21,1.74.57h0c.65.49,1.03,1.22,1.03,2l-.95,20.05c0,2.37-2.06,17.16-3.07,20.05-9.98,28.53-41.48,48.95-73.93,48.26"/>
      <path class="cls-1" d="M280.01,264.41c-2.23-29.96-41.86-52.38-74.49-52.43-.63,0-1.25.21-1.74.57h0c-.65.49-1.03,1.22-1.03,2l.95,20.05c0,2.37,2.06,17.16,3.07,20.05,9.98,28.53,41.48,48.95,73.93,48.26"/>
    </g>
    <path class="cls-1" d="M300.98,216.43c12.65-17.17,1.66-47.59-15.9-62.71-.34-.29-.77-.47-1.2-.49h0c-.58-.04-1.12.18-1.48.6l-8.76,11.25c-1.1,1.28-6.82,10.2-7.62,12.23-7.82,19.99-.28,45.57,17.53,60.2"/>
  </g>
</svg>