<?xml version="1.0" encoding="UTF-8"?>
<svg id="Capa_2" data-name="Capa 2" xmlns="http://www.w3.org/2000/svg" viewBox="0 0 345.93 321.03">
  <defs>
    <style>
      .cls-1 {
        fill: #1a1a1e;
      }
    </style>
  </defs>
  <g id="Capa_2-2" data-name="Capa 2">
    <path class="cls-1" d="M2.18,243.24c0-.29-2.47-2.13-2.16-4.87.78-6.95,33.94-21.75,41.6-24.62,36.12-13.52,73.64-15.17,110.52-23.37,8.12-1.81,41.06-8.95,32.05-22.16-8.33-12.21-48.58-19.24-45.76-41.29,2.44-19.1,39.31-29.02,55.24-32.87,37.19-8.99,95.67-19.82,133.56-24.29,2.58-.31,17.64-1.98,18.7-.28l-.88,6.09c-30.52,5.09-62.2,11.05-91.54,22.36-11.45,4.41-49.15,19.08-26.19,33.15,20.19,12.38,84.54,23.03,77.84,58.28-5.99,31.53-59.12,48.49-84.48,63.52-27.51,16.3-52.66,32.52-59.64,66.28l-2.2,1.76c-1.81.59-4-1.77-4.78-1.79,5.57-63.41,81.49-74.82,121.78-105,40.29-30.18,17.51-45.52-16.51-61.13-19.28-8.85-66.01-17.03-41.36-46.64l24.02-12.92c-17.9,2.72-85.37,13.78-92.91,29.96-10.38,22.26,52.84,27.06,44.57,54.48-6.34,21.03-67.85,24.27-86,27.94-37.64,7.61-72.91,16.23-105.48,37.4Z"/>
    <path class="cls-1" d="M86.13,121.4v50.93l-3.03,2.99-4.97-2.99v-50.93c-28.53,14.99-57.73-4.31-53.79-36.79.51-4.24,3.69-8.52,3.64-12.17-.15-10.98-12.05-15.58-1.51-33.63,7.93-13.57,21.92-12.37,25.24-15.73,1.15-1.16.97-5.81,2.69-8.26C63.87,1.28,81.92-4.4,96.85,3.82c8.71,4.8,11.38,15.28,15.32,18.64,6.96,5.94,18.5,3.32,25.02,16.94,7.92,16.54-1.08,21.8-1.21,33.03-.06,5,3.45,9.41,3.99,14.23,3.31,29.54-28.34,50.28-53.85,34.75ZM78.13,91.44v-40.95c12.57-10.94,6.1,16.41,8.01,18.97,3.14.12,16.45-14.67,17.96-6.96l-17.93,21.99c1.25,10.7-5.14,27.43,8.06,31.8,18.27,6.05,38.27-5.54,37.67-25.66-.21-6.92-5.97-13.28-6-18.17-.06-9.12,13.79-15.41,2.2-31.96-7.37-10.53-15.1-6.54-21.14-10.83-3.42-2.43-4.59-9.55-7.13-12.85-9.31-12.1-29.24-10.48-37.71,1.69-2.38,3.42-3.2,10.36-5.97,12.01-6.66,3.96-15.79-.19-22.39,11.57-9.56,17.06,4.05,22.18,4.32,30.34.31,9.27-13.23,14.86-1.58,33.64,7.66,12.35,30.4,16.61,39.64,6.35,10.32-11.46-22.82-23.17-21.98-34.96,10.5-1.59,14.89,10.51,23.97,13.97Z"/>
  </g>
</svg>