<?xml version="1.0" encoding="UTF-8"?>
<svg id="Capa_2" data-name="Capa 2" xmlns="http://www.w3.org/2000/svg" viewBox="0 0 848.33 275.41">
  <defs>
    <style>
      .cls-1 {
        fill: #00f403;
      }
    </style>
  </defs>
  <g id="Capa_2-2" data-name="Capa 2">
    <g>
      <path class="cls-1" d="M839.8,129.06c-14.46,17.26-45.41,32.34-72.36,42.14-41.94,15.07-89.92,24.84-134.57,30.44-13.29,1.61-26.49,2.78-39.47,3.5-167.04,11.31-287.97-74.46-438.92-68.09-22.52.7-46.78,3.04-68.93,4.72-18.43,1.43-35.02,2.45-47.8,2.46-14.66.03-24.29-1.29-27.44-4.06-5.6-4.93,8.58-12.11,22.92-17.58,193.17-67.73,412.4,67.85,594.87,48.93,24.62-2.38,54.31-8.73,75.57-16.79,17.54-6.48,36.54-17.47,13.62-22.09-14.26-2.65-30.23-2.47-45.31-2.57-41.17.18-90.1,2.58-134.27-1.91-17.05-1.59-33.87-3.89-50.58-6.87-112.02-19.17-199.78-71.6-311.21-75.07-48.55-1.83-103.35,7.71-150.02,6.31-22.82-1.06-23.14-8.09-2.54-17.46,25.29-11.76,68.77-20.88,104.46-22.68,34.58-1.97,69.18.21,103.57,4.49,61.31,7.52,122.16,23.08,183.48,30.07,68.25,8.66,136.16,1.79,202.4-15.38,32.38-7.9,64.61-17.15,97.36-23.42,27.31-5.6,68.96-9.33,89.3-7.76,8.52.35,33.37,2.95,15.65,13.05-4.21,2.4-10.52,5.03-18.63,7.81-33.02,11.15-74.76,19.36-111.63,28.72-33.71,8.85-77.61,22.05-100.2,38.15-11.34,8.87,1.95,10.35,10.4,10.26,62.5-1.67,142.57-26.6,206.91-16,25.38,3.8,57.38,18.27,33.44,46.6l-.08.1Z"/>
      <path class="cls-1" d="M837.32,202.1c-.43,1.37-6.14,4.21-15.85,8.06-8,3.16-16.1,6.09-24.36,8.98-39.28,13.54-77.81,25.37-117.23,35.06-333.29,83.88-314.61-113.34-594.49-36.39-17.15,3.95-78.57,27.87-85.29,13.21-1.42-6.08,12.65-15.89,22.8-21.51,9.24-5.16,20.82-10.19,32.96-14.32,221.92-73.99,340.3,39.48,592.05,28.61,26.58-1.21,54.25-3.71,80.38-6.95,28.97-3.52,54.06-7.94,81.09-12.58,9.58-1.39,27.61-5,27.95-2.19v.02Z"/>
    </g>
  </g>
</svg>