<?xml version="1.0" encoding="UTF-8"?>
<svg id="Capa_2" data-name="Capa 2" xmlns="http://www.w3.org/2000/svg" viewBox="0 0 603.67 197.34">
  <defs>
    <style>
      .cls-1 {
        fill: #00ac61;
      }

      .cls-2 {
        fill: #00f403;
      }
    </style>
  </defs>
  <g id="Capa_2-2" data-name="Capa 2">
    <g>
      <path class="cls-2" d="M45.74,23.11C77.73,3.18,120.24,4.73,159.17,4.11,249.47,2.76,338.56.38,428.75.03c26.15-.09,53.16,0,79.43.47,29.13.81,60.85.87,87.41,7.76,19.64,6.09-1.33,9.83-11.98,10.58-7.37.66-16.4.99-26.04,1.04-125.94.27-328.9-10.47-454.41.26-28.88,3.17-52.52,18.69-73.58,32.08-5.16,3.34-16.89,10.19-18.33,8.14-1.5-1.39.8-5.77,2.35-7.97,6.46-9.6,17.08-19.9,31.96-29.18l.19-.12Z"/>
      <path class="cls-2" d="M574.83,148.69c-8.21,12.42-18.38,24.18-28.7,32.96-8.69,7.46-19.98,13.63-9.96-2.73,40.48-61.49,46.25-74.44,56.41-148.35.91-5.89,4.52-27.88,8.73-10.34,7.15,42.57-2.09,91.69-26.34,128.24l-.14.21Z"/>
      <path class="cls-1" d="M45.9,21.98c.89,4.38-23.47,28.22-28.72,29.8-6.05.25,25.97-31.87,28.69-29.82l.03.02Z"/>
      <path class="cls-2" d="M33.75,102.08c21.29-20.14,60.94-15.38,72.13,13.52,9.71,23.65-1.82,53.78-27.08,61.07-17.91,5.84-40.2.44-50.98-15.43-12.31-17.04-9.69-44.77,5.8-59.04l.13-.12Z"/>
      <path class="cls-2" d="M376.39,102.56c20.22,20.11,15,60.48-12.34,72.06-23.07,10.48-53.01.19-60.58-24.84-5.99-17.61-1.01-39.61,14.41-50.61,16.23-12.39,43.97-11.56,58.39,3.26l.12.12Z"/>
      <path class="cls-2" d="M469.03,102.79c15.2,13.99,18.24,41.54,6.53,58.32-7.49,11.32-21.22,17.43-34.91,17.39-31.49.25-51.25-27.62-44.23-57.64,7.65-32.3,50-39.05,72.49-18.18l.13.12Z"/>
      <path class="cls-2" d="M188.25,102.77c14.58,14.39,16.16,41.8,4.11,58.29-10.9,16.08-34.1,21.47-51.88,14.2-23.58-8.77-31.91-39.22-21.79-61.2,11.44-26.64,49.76-31.27,69.44-11.41l.12.12Z"/>
      <path class="cls-2" d="M282.08,166.23c-21.06,20.64-64.46,15.74-72-15.94-7.08-29.23,11.6-59.42,43.36-59.35,39.96-.38,54.14,48.58,28.76,75.16l-.12.12Z"/>
      <path class="cls-2" d="M8.24,191.14c5.82-1.71,26.41-2.66,37.16-3.45,138.59-8.12,288.94-1.22,432.81-1.18,12.24.32,21.3.55,31.35,1.74,1.99.28,3.4.47,5.16,1,1.07.35,1.56.72,1.45,1.1-.27,1.05-5.19,2.22-14.12,3.26-10.95,1.25-22.01,1.88-36.28,2.45-36.84,1.37-75.79,1.34-112.88,1.23-83.59-.29-163.66-2.23-246.57-3.7-28.39-.59-60.45-.71-86.35-1.27-8.47-.25-12.66-.63-11.73-1.17h.01Z"/>
      <path class="cls-2" d="M2.84,77.13c2.5-.98,10.22-1.68,21.31-2.07,23.71-.71,51.13-.62,76.25-1.04,79.14-1.01,159.15-2.6,237.89-2.67,30.63-.02,61.54.05,92.13,1.01,16.13.47,35.05,1.64,49.59,3.52,5.33.81,15.29,1.88,15.51,3.84-.41,1.06-6.47,1.84-16.71,2.23-10.93.45-28.28.37-41.7.54-47.51.51-97.74,1.54-145.74,2.34-63.69,1.07-123.55,1.61-186.68.94-30.64-.51-65.96-.96-94.25-5.19-7.5-1.24-10.15-2.48-7.65-3.44h.04Z"/>
      <path class="cls-2" d="M567.22,31.11c15.07,9.55,11.56,45.27,8.55,62.94-3.65,20.19-10.48,43.26-23.46,58.25-8.47,9.75-19.01,11.28-24.39-2.54-4.79-12.6-4.32-28-2.99-41.56,2.71-22.6,7.94-44.72,19.81-63.62,4.94-7.34,13.22-17.48,22.39-13.52l.1.05Z"/>
      <path class="cls-2" d="M506.74,91.11c13.98,9.88,12.49,52.35,8.71,68.46-1.84,7.8-6.67,21.67-15.37,16.4-6.3-5.06-8.26-14.84-9.72-22.8-2.47-17.96-2.32-37.47,4.12-53.53,2.14-4.91,6.38-11.6,12.16-8.58l.09.05Z"/>
      <path class="cls-2" d="M8.32,176.8C-.33,177.35-.6,130.3.41,120.26c.6-10.52,2.04-19.77,3.86-24.67.53-1.41,1.1-2.75,2.08-3.7,4.94-3.62,7.07,15.43,7.57,19.95,1.34,12.71,2.91,58.22-5.54,64.93l-.05.02Z"/>
    </g>
  </g>
</svg>