<?xml version="1.0" encoding="UTF-8"?>
<svg id="Capa_2" data-name="Capa 2" xmlns="http://www.w3.org/2000/svg" viewBox="0 0 299.27 276.26">
  <defs>
    <style>
      .cls-1 {
        fill: #1a1a1e;
      }
    </style>
  </defs>
  <g id="Capa_2-2" data-name="Capa 2">
    <path class="cls-1" d="M183.8,27.36c7.12-3.78,19.94-27.22,21.69-27.19,10.17,10.52,2.31,31.19-5,41.89,50.44-1.7,28.13,36.7-8,31.98-1.94,10.18,6.78,15.41,11.08,23.89,5.61,11.07,9.42,25.65,8.91,38.04,15.03,2.39,49.1-5.79,58.89,6.06s16.88,35.4,26.99,47.28c-1.77,22,2.62,48.07.11,69.53-1.14,9.77-7.05,15.15-16.94,15.03-84.29-6-178.95,7.65-262,0-6.32-.58-15.26-3.96-17.85-10.12-1.97-4.69-2.12-63.11-.92-70.74.87-5.54,22.74-46.04,26.95-50.97,10.16-11.91,43.55-3.65,58.88-6.07-.04-11.27,2.64-23.62,7.02-33.94s12.13-15.81,14.95-24.94l-3.3-2.74c-13.17.88-24.74-2.17-32.64-13.3-11.58-16.32,13.52-19.63,25.96-18.99-5.69-8.38-13.71-31.23-6.91-39.85,1.68-2.13,2.4-3.1,4.95-1.11,1.64,1.28,6.28,14.3,10.89,19.08,2.44,2.54,11.45,9.1,14.53,9.63,3.8.66,6.72-1.48,9.52-1.3,11.73.75,17.42-.34,27.89-.48,8.54-.12,13.69,5.02,24.37-.66ZM118.56,36.11c-9.09-.71-12.89-9.84-19.97-14.02.16,10.02,14.44,32.44,19.97,14.02ZM182.78,36.32l-.25,4.73c4.3,11.44,20.36-15.97,17.95-18.95l-17.7,14.22ZM181.03,53.53c-2.93-5.25-3.8-12.42-10.38-14.58-5.72-1.87-41.22-1.91-45.23.98-3.69,2.66-7.67,14.99-12.11,15.84-8.27-3.2-12.24-6.34-21.77-5.86-25.32,1.3-5.82,18.38,9.9,16.05,4.54-.67,8.1-4.78,13.12-3.93,2.11,2.09,1.16,22.5,2.04,26.6.34,1.57,3.51,1.38,4.54,3.86,3.12,7.52,5.72,15.51,7.45,23.47,12.92-7.44,29.13-6.85,41.92,0,4.17-18.57,17.04-33.9,14.03-53.92,15.16,5.33,26.86,6.58,37.92-7-5.88-5.52-16.93-6.15-24.5-4.54-5.84,1.24-10.44,8.45-16.92,3.02ZM122.55,137.95c2.33-17.1-6.1-31.97-10.01-47.94-13.66,9.84-17.73,31.93-17.97,47.94h27.98ZM204.5,135.95c1.55-16.87-6.72-31.53-14.02-45.93-11.31,11.41-14.83,30.22-13.96,45.93h27.98ZM167.98,137.43c17.14-19.05-36.97-27.56-39.08-10.02-2.14,17.85,31.84,18.06,39.08,10.02ZM288.44,191.88c-2.43-8.04-22.01-45.94-27.37-47.55-27.54,1.67-60.72-3.56-87.61-.45-5.59.65-9.28,3.48-15.82,4.16-14.26,1.49-20.75-2.86-32.02-4.16-26.52-3.07-58.78,2.37-85.97.1-5.38.93-7.81,7-10.64,11.34-6.92,10.61-14.39,24.89-18.38,36.56h277.8ZM290.43,199.87H8.63v58.92c0,.35,4.64,4.99,5,4.99h273.81l3-3v-60.92Z"/>
    <path class="cls-1" d="M131.55,81.47c-3.84,5.57-11.6-.78-8.07-5.89,3.95-4.71,11.84.16,8.18,5.73l-.11.16Z"/>
    <path class="cls-1" d="M44.61,151.93h211.85l17.12,27.89-2.13,4.07H26.62l14.46-31.54c1.09-.93,2.43-.27,3.52-.42ZM264.45,177.89c-3.53-6.63-6.69-19.84-14.87-20.09l-201.98.11c-5.77,1.07-10.73,14.15-10.98,19.98h227.84Z"/>
    <path class="cls-1" d="M137.57,125.97c5.41-1.22,6.84,8.86,1.94,9.97-5.41,1.22-6.84-8.86-1.94-9.97Z"/>
    <path class="cls-1" d="M159.56,125.97c5.41-1.22,6.84,8.86,1.94,9.97-5.41,1.22-6.84-8.86-1.94-9.97Z"/>
    <path class="cls-1" d="M167.37,81.47c3.84,5.57,11.6-.78,8.07-5.89-3.95-4.71-11.84.16-8.18,5.73l.11.16Z"/>
  </g>
</svg>