<?xml version="1.0" encoding="UTF-8"?>
<svg id="Capa_2" data-name="Capa 2" xmlns="http://www.w3.org/2000/svg" viewBox="0 0 604.45 392.07">
  <defs>
    <style>
      .cls-1 {
        fill: #00ac61;
      }

      .cls-2 {
        fill: #00f403;
      }
    </style>
  </defs>
  <g id="Capa_2-2" data-name="Capa 2">
    <g>
      <path class="cls-2" d="M278.22,43.77c22.73-3.78,48.98,1.1,67.59,14.15,11.9,7.58,31.05,28.6,4.76,28.64-18.55-.16-39.75-5.83-60.02-4.77-19.01.32-38.29,5.65-57.03,4.68-19.18-1.84-5.49-18.22,2.51-24.41,11.43-9.45,26.91-15.97,41.94-18.24l.25-.04Z"/>
      <path class="cls-1" d="M270.1,1.89c38.7-6.6,81.41,4.28,111.02,29.68,6.94,6.07,11.72,10.83,15.36,17.64,7.67,16.53-18.3,9.85-26.69,8.14-41.37-10.26-65.79-19.14-110.58-9.9-21.63,3.76-36.74,8.5-54.55,7.59-23.07-2.78-.13-24.31,10.07-31.09,15.34-11.02,35.82-19.1,55.13-22.02l.25-.04ZM280.38,7.06c-12.95.76-25.76,3.58-37.77,8.38-16.08,6.42-29.24,15.32-36.66,22.43-5.74,5.27-12.82,15.27.72,14.56,9.61-.63,19.66-3.81,30.56-6.66,8.07-2.19,17-4.64,26.09-6.57,19.33-4.23,39.64-4.91,59.21-1.43,25.79,4.38,51.2,14.85,64.15,17.98,9.99,2.63,13.3.49,4.58-8.07-28.43-25.53-71.86-42.93-110.62-40.63l-.26.02Z"/>
      <path class="cls-2" d="M276.6,89.54c15.27-3.72,33.66-1.97,47.52,5.07,8.36,3.89,20.93,14.94,8.4,21.13-9.82,4.34-22.73,4.09-38.01,4.28-15.95-.43-28.69.68-39.76-4.96-9.02-5.51-1.48-14.71,5.57-18.89,4.34-2.76,9.96-5.11,16.04-6.58l.24-.06Z"/>
      <path class="cls-2" d="M289.42,134.32c12.25-3.37,23.89,8.69,21.71,20.91-1.98,14.06-19.1,19.73-28.98,9.44-9.4-9.25-6.07-26.8,7.08-30.3l.19-.05Z"/>
      <path class="cls-2" d="M96.2,298.8c19.88,20.7,15.95,58.59-11.51,70.67-22.53,10.48-53.42,1.76-63.27-21.87-7.87-17.45-4.25-41.03,11.06-53.07,17.48-14.51,48.01-12.4,63.59,4.13l.13.13Z"/>
      <path class="cls-2" d="M312.98,296.47c21.29-20.14,60.94-15.38,72.13,13.52,9.71,23.65-1.82,53.78-27.08,61.07-17.91,5.84-40.2.44-50.98-15.43-12.31-17.04-9.69-44.77,5.8-59.04l.13-.12Z"/>
      <path class="cls-2" d="M218.52,296.71c20.98-20.52,61.54-15.43,72.57,13.46,9.55,23.33-1.88,53.38-26.73,60.77-17.84,6.06-40.08.99-50.84-15-12.1-16.88-10.24-44.63,4.88-59.11l.13-.13Z"/>
      <path class="cls-2" d="M126.42,360.92c-21-21.07-18.06-67.99,15.24-75.15,28.99-6.31,57.21,12.8,57.99,43.2.55,13.65-5.07,27.64-15.99,35.71-16.09,12.46-42.81,11.22-57.12-3.64l-.12-.12Z"/>
      <path class="cls-2" d="M467.55,297c20.79,21.44,15.34,67.04-16.64,74.81-24.05,6.22-50.43-7.95-55.65-33.01-4.48-18.32,2.43-39.78,19.56-48.82,16.01-9.19,39.87-6.64,52.62,6.89l.12.13Z"/>
      <path class="cls-2" d="M592.18,204.3c3.73,5.9-19.06,9.94-27.06,11.19-139.63,17.05-386.64-30.45-517.51,23.79-10.01,3.81-32.66,14.88-38.18,10.94-1.98-2.08.89-5.71,5.08-9.82,64.97-54.95,328.31-45.35,440.92-45.39,24.8.34,50.15.75,75.15,1.17,21.14.68,53.02,1.05,61.58,8.09l.03.04Z"/>
      <path class="cls-2" d="M6.35,387.22c147.57-17.15,314.62-8.27,470.55-5.23,12.35.52,22.47.88,32.66,2.22,1.63.18,6.04,1.07,5.43,1.8-.28.93-5.23,1.92-14.01,2.79-11.74,1.16-26.47,1.79-41.06,2.24-44.36,1.28-91.16,1.07-135.9.86-77.46-.44-154.12-1.77-231.48-2.55-25.94-.36-55.28-.3-77.91-.78-7.72-.24-10.62-.67-8.32-1.35h.03Z"/>
      <path class="cls-2" d="M497.7,271.55c2.44.97-.28,2.2-7.85,3.44-28.27,4.19-63.44,4.64-94.02,5.16-63.06.68-122.75.15-186.4-.92-48.13-.79-98.54-1.82-146.17-2.33-13.45-.17-30.84-.09-41.79-.55-10.25-.4-16.31-1.19-16.68-2.26-.28-.6,1.65-1.29,2.51-1.52,2.51-.74,6.88-1.52,12.76-2.28,6.06-.78,13.72-1.54,22.31-2.16,33.68-2.25,68.74-2.19,102.67-2.37,84.35-.17,168.69,1.53,253.11,2.61,25.8.43,53.83.34,78.18,1.07,11.14.39,18.87,1.1,21.32,2.09h.04Z"/>
      <path class="cls-2" d="M567.77,225.08c10.18,7.6,11.17,26.56,10.78,41.35-1.69,27.65-9.59,60.46-28.9,80.31-7.14,7.06-17.33,9.9-23.08-.39-7.25-14.59-5.58-30.89-3.13-49.15,3.42-21.3,11.61-48.69,24.37-64.31,4.53-5.72,12.79-12.5,19.87-7.88l.09.06Z"/>
      <path class="cls-2" d="M496.6,374.06c-13.65-9.3-11.74-55.72-8.75-71.61,1.62-8.52,6.6-24.07,15.99-16.48,6.28,6.23,8.56,16.5,10.09,25.2,2.37,16.77,2.06,35.34-3.71,51.45-2.28,5.74-6.63,14.7-13.53,11.5l-.09-.05Z"/>
      <path class="cls-2" d="M596.89,210.72c5.56,1.18,7.03,21.84,7.35,27.3,2.52,52.58-19.04,104.11-59.78,138.14-3.36,2.77-6.14,4.74-8.13,5.83-.89.54-2.31,1.12-3.03,1.01-1.55-.21-.68-3.07,2.26-8.38,2.13-3.86,5.33-9.02,9.15-15.19,13.61-21.5,27.05-45.9,33.15-71.15,4.96-18.9,7.97-40.18,11.42-57.24,1.18-4.62,3.26-19.3,7.57-20.31h.04Z"/>
      <path class="cls-2" d="M7.22,371.53c-3.74,2.3-5.3-12.99-5.74-15.86-1.67-14.42-3.3-56.23,3.3-67.95,3.93-3.4,5.89,14.44,6.37,18.49,1.54,12.96,2.73,56.15-3.88,65.28l-.05.04Z"/>
      <path class="cls-2" d="M281.14,7.16c38.31-2.02,80.52,15.72,108.56,40.76,11.64,11.49.57,9.56-8.24,6.6-55.57-20.46-82.19-26.05-143.43-8.01-11.44,3.03-21.88,6.23-31.98,7.23-7.46.72-11.22-1.7-6.32-8.44,10.14-12.7,29.58-25.52,55.3-33.64,8.41-2.48,17.08-3.99,25.86-4.48h.25Z"/>
    </g>
  </g>
</svg>