<?xml version="1.0" encoding="UTF-8"?>
<svg id="Capa_2" data-name="Capa 2" xmlns="http://www.w3.org/2000/svg" viewBox="0 0 302.1 257.79">
  <defs>
    <style>
      .cls-1 {
        fill: #1a1a1e;
      }
    </style>
  </defs>
  <g id="Capa_2-2" data-name="Capa 2">
    <path class="cls-1" d="M36.02,107.85c-.65-9.29.31-23.83-2.42-32.54-1.14-3.65-6.56-6.16-8.61-11.37-1.51-3.83-4.9-23.28-4.88-27.32.02-5.32,6.1-10.06,3.92-16.67,9.35.09,14.93,12.18,17.02,19.95,3.47,12.92,4.27,22.11-.92,34.71l5.85,33.23c-.05-18.52,12.14-42.53,13.54-59.4.36-4.33-2.02-7.72-1.17-12.97,1.82-11.26,12.85-32.92,25.61-35.47,3.38,14.98.77,27.16-6.39,40.59-3.6,6.74-8.68,8.22-11.17,12.74-4.78,8.67-6.1,24.6-8.41,34.55-.77,3.32-6.04,9.77-3,14,2.98-3.85,4.56-10.01,6.99-14,3.74-6.14,19.85-29.83,26.95-27.96l3.03,4.97c-20.41,21.97-26.85,53.78-29.96,82.91,11.82-4.91,43.08-1.51,51.92-7.01,1.84-1.14,7.12-11.95,6.01-12.94-6.07,1.17-32.34-.39-29.74-10.76,1.34-5.35,16.77-6.26,20.46-9.05,4.19-3.18,1.72-15.82,18.82-17.78,23.9-2.74,26.21,27.27,18.46,43.56,20.54-11.83,41.49,4.22,59,4.06,7.12-.07,11.65-6.77,18.92-6.04l.02,13.96,20.94,4.04c4.37.12-3.44-28.65-4.4-31.55-2.14-6.43-19.06-35.76-16.54-38.37,12.28,2.14,22.27,17.64,27.97,27.95.98,1.77.26,5.72,3.98,5.99,1.3-3.12-1.78-4.84-1.98-5.99-1.75-10.03-3.7-32.33-8.03-40.41-1.37-2.55-6.78-4.09-9.67-8.83-7.44-12.17-9.2-28.94-6.28-42.66,2.32-2.37,12.7,7.23,14.02,8.98,11.13,14.83,7.49,24.54,8.6,39.71.74,10.08,8.26,27.91,9.36,39.21l1.98,17.97c1.44-6.43,1.16-13.75,2.02-19.96.65-4.68,3.93-11.16,3.77-15.07-.44-10.86-4.95-10.09-.34-26.43,2.4-8.5,8.29-24.4,18.54-24.42-2.11,6.47,3.77,11.08,3.63,16.38-.5,19.14-12.89,28.94-16.25,41.92-1.62,6.26-.35,11.54-1.41,16.25-.12.55-7.89,4.68-3.95,9.34,3.04,3.59,14-19.76,21.97-13.95-1.44,3.36-3.65,6.3-4.86,9.81-.78,2.26-1.47,9.29-2.05,12.15-1.95,9.57-4.91,19-5.17,28.9,1.26,7.35,21.98,8.84,20.23,28.04-1.99,21.9-40.36,23.15-45.21,30.86-1.24,1.98-1.04,3.91-.9,6.07,4.38-1.94,8.21-4.98,13.1-5.86,19.88-3.58.47,12.2-2.88,19.1s-4.11,13.17-5.19,20.78c-9.43,6.9-6.16-11.62-5.06-16.04.62-2.51,5.19-5.99,3.98-9.99l-5.98,7.99c-2.18.4-4.4,3.78-7.05.08-3.5-15.88,4.26-31.33,9.03-46.02-12.52,11.08-15.03,28.5-17.99,43.93-4.14.63-6.27-2.95-7.97-5.98-2.13-3.78-2.27-11.97-7.97-13.98-.74,4.61,5.35,10.68,5.98,13.98.79,4.17,1.11,27.09-3.03,27.95-8.64,1.8-2.38-13.4-2.98-13.96-41.71,15.28-88.44,17.86-132,9.08-10.27-2.07-30.4-7.41-38.57-13.38-11.01-8.04-7.71-18.21-14.16-25.8-8.79-10.33-41.21-10.82-36.72-34.32,3.06-16.06,22.44-15.74,23.72-26.36,1.45-12-1.27-26.26-4.26-37.92-1.92-7.48-17.15-37.45-15.83-39.1,3.02-3.8,7.77.72,10.03,2.93,7.45,7.27,15.99,19.44,19.94,29.03.94,2.28,1.44,10.03,3,10.01,3.88-2.5-.91-8.7-1-10.01ZM66.02,41.94c8.18-5.91,11.98-20.09,11.95-29.96-7.89,6.64-11.07,20.05-11.95,29.96ZM237.9,29.95c-1.6,4.35,5.6,27.75,8.97,27.92,6.27.32-2.73-19.84-3.91-22.02s-2.2-5.42-5.06-5.91ZM36,63.91c2.24-1.92-1.83-37.2-7.96-29.95,1.96,9.21.57,23.36,7.96,29.95ZM285.83,49.94c-5.23-1.29-4.72,3.47-5.98,6.92-2.41,6.6-4.27,13.93-3.99,21.03,4.78.8,3.79-.5,4.92-3.96,2.33-7.17,3.41-16.46,5.06-23.98ZM55.7,149.48c-1.1-17.84,5.25-34.35,8.28-51.6l-13.83,29.09-2.12,24.82,7.67-2.3ZM139.87,133.78c5.66-10.65,7.17-39.07-10.43-35.62-21.18,4.15,1.97,21.89-1.26,33.45l11.69,2.17ZM30.03,119.83c.89,4.16,1.46,33.74,3.15,33.99l8.87-1.06c-3.35-10.91-6.19-22.21-10.02-32.93-1.96-5.5-3.79-11.08-6.99-16-3.98,4.88,4.52,13.77,5,16ZM251.87,121.83c2.49,10.91-.45,28.42,9.97,31.96.41-11.62-3.5-23.39-7.97-33.96-.97-2.28-4.96-12.16-5.98-9.98-1.57,4.69,3.39,9.39,3.98,11.97ZM115.96,115.85c-.89-.68-13.95-.14-13.97,3.96,4.23-1.1,15.63,3.45,13.97-3.96ZM275.83,157.78c-.1-4.97.22-10.02.02-15-.09-2.41,1.51-7.43-1.97-6.95l-4.16,18.61,6.11,3.34ZM217.88,143.81c-21,5.77-39.19-10.49-60.01-5.06-4.64,1.21-11.96,8.05-16.67,7.22-1.74-.31-1.3-8.71-14.2-6.13-7.2,1.44-13.94,17.71-12.73,24.46,1.35,7.51,9.85,12.29,16.86,13.27,11.92,1.68,49.59,1.66,61.3-.3,17.52-2.93,20.06-19.08,25.45-33.47ZM107.96,149.81c-25.52,4.27-68.87,5.8-90.6,20.29-29.69,19.8,17.63,28.44,25.75,37.53,6.48,7.25,4.38,17.07,12.17,23.79,20.33,17.57,89.2,19.06,115.62,16.23,16.67-1.79,34.47-4.83,49.14-13.2l-12.14-32.7c12.25-1.8,17.23,10.49,25.95,15.96,4.28-17.68,15.39-34.59,31.3-43.7,11.78-1-7.98,23.16-5.29,29.71,11.12-3.18,41.64-10.63,32.06-27.07-6.44-11.05-58.75-24.96-70.92-22.92-1.15,10.94-8.56,24.56-19.11,29.03-10.91,4.62-59.36,4.38-72.42,2.47-20.01-2.92-25.95-16.86-21.52-35.42Z"/>
    <path class="cls-1" d="M137.96,151.8c7.67-.48,7.99,6.39,15.6,9.36,15.52,6.04,34.68,1.57,45.34-11.33l3.07,4.96c-.08,17.02-65.66,25.86-64.01-3Z"/>
    <rect class="cls-1" x="127.97" y="103.87" width="3.98" height="5.97"/>
  </g>
</svg>