<?xml version="1.0" encoding="UTF-8"?>
<svg id="Capa_2" data-name="Capa 2" xmlns="http://www.w3.org/2000/svg" viewBox="0 0 379.64 350.22">
  <defs>
    <style>
      .cls-1 {
        fill: #00ac61;
      }

      .cls-2 {
        fill: #00f403;
      }
    </style>
  </defs>
  <g id="Capa_2-2" data-name="Capa 2">
    <g>
      <path class="cls-2" d="M65.5.85c61.1-8.66,106.82,50.19,85.14,107.49-14.77,39.54-61.09,60.47-100.47,45.06C-22.73,124.25-14.9,13.08,65.3.88l.2-.03Z"/>
      <path class="cls-1" d="M378.72,149.36c3.94-11.94-5.69-25.59-11.84-37-3.85-6.67-7.73-13.32-11.6-19.97-9.33-15.92-18.25-31.98-28.62-47.24-9.09-12.55-24.82-36.34-42.09-25.71-8.77,4.86-20,20.31-28.05,32.55-6.92,10.47-13.5,21.27-20.03,31.87-5.55,9.04-11.1,18-16.68,27.02-6.62,11.25-13.64,20.88-13.99,33.24.34,13.22,15.19,15.92,26.23,16.85,16.95,1.16,33.67.79,51.47.69,18.25-.23,36.01-.67,53.04-1.03,14.99-.85,36.17,1.26,42.12-11.16l.05-.11Z"/>
      <path class="cls-2" d="M378.63,149.62c-6.01,12.24-27.2,10.17-42.09,11.01-17.02.36-34.78.8-53.02,1.03-17.79.1-34.52.48-51.46-.69-11.06-.91-25.9-3.64-26.23-16.87.35-12.36,7.37-22,13.99-33.25,5.66-9.14,11.28-18.22,16.91-27.38,12.45-19.26,30.53-52.99,48.06-64.11,11.78-7.42,23.25,2.5,31,11.51,8.44,9.72,16.03,21.83,22.81,33.07,8.27,13.83,16.16,27.66,24.3,41.59,6.61,12.46,20.52,30.75,15.79,43.98l-.05.11Z"/>
      <path class="cls-2" d="M260.31,337.09c-10.29,10.53-26.99,12.03-41.94,12.63-18.6.54-39.08.98-57.56-.59-15.68-1.67-31.24-3.93-40.35-17.21-10.19-14.48-9.94-46.19-8.88-67.81.77-13.58,1.39-27.19,4.8-39.57,3.28-12.46,11.22-23.14,23.19-27.83,10.19-4.37,23.68-5.17,36.01-5.51,11.52-.29,23.12-.44,34.66-.22,47.8,1.02,62.57,8.28,62.83,58.82.24,12.09-.06,24.29-.31,36.36-.74,17.94.05,37.71-12.35,50.82l-.11.11Z"/>
    </g>
  </g>
</svg>