<?xml version="1.0" encoding="UTF-8"?>
<svg id="Capa_2" data-name="Capa 2" xmlns="http://www.w3.org/2000/svg" viewBox="0 0 305.4 548.6">
  <defs>
    <style>
      .cls-1 {
        fill: #00f403;
      }
    </style>
  </defs>
  <g id="Capa_2-2" data-name="Capa 2">
    <g>
      <path class="cls-1" d="M244.83,520.24c-31.96,37.72-100.66,27.76-145.64,25.46C8.77,540.86,1.17,478.32.16,397.95c.13-36.01-1.82-87.11,5.08-119.09,3.89-3.28,5.42,21.54,6.33,29.39,1.9,21.36,2.87,49.61,3.49,72.47,2.59,72.93-5.17,143.96,76.18,152.48,31.7,4.77,69.76,4.29,100.65-2.21,36.63-6.24,54.62-33.74,56.83-69.66,4.73-50.35.65-132.74,8.46-174.78.93-4.99,2.97-5.44,4.03.45,5.11,30.33,5.12,68.69,6.05,102.28-.58,45.6,5.36,94.37-22.32,130.83l-.1.13Z"/>
      <path class="cls-1" d="M123.76,46.59c23.33-9.11,41.4,10.41,43.72,32.7,2.15,19.16-3.65,41.01-20.96,50.54-12.52,6.74-27.92,2.4-36.35-9.02-16.3-21.18-12.89-62.77,13.43-74.15l.16-.07Z"/>
      <path class="cls-1" d="M12.29,230.92c8.2-14.29,31.68-20.82,45.22-22.16,2.82-.16,5.67-.6,8.01.4,2.16,1.73-6.21,5.29-8.07,6.39-4.73,2.4-10.86,5.41-16.28,8.72-19.08,11.08-17.02,21.28,3.33,28.9,22.93,8.47,58.11,10.25,84.7,10.01,45.38.18,160.14-11.22,100.29-37.45-5.51-2.94-29.36-11.58-28.77-15.43,1.78-2.29,9.28-1.15,16.34.19,7.91,1.68,16.1,4.3,23.85,7.95,27.05,12.89,30.32,30.74-.14,41.84-39.89,15.71-173.55,28.09-221.66-5.99-7.17-5.42-11.89-14.86-6.89-23.27l.06-.11Z"/>
      <path class="cls-1" d="M183.47,3.05c16.35,5.06,27.06,18.76,30.88,35.06,3.74,14.03,3.88,29.46,11.89,41.67,9.02,13.83,25.98,16.02,42.01,17.2,9.56,1.01,33.36,1.76,37.14,10.47.73,11.08-39.67,11.42-51.72,9.21-29.63-4.1-44.81-19.67-48.37-49.33-2.91-25.14-5.96-48.96-35.51-53.18-12.06-1.68-25.73,3.05-37.29,3.85-6.12.45-8.31-1.72-3.47-6.19,3.58-3.36,11.06-7.86,20.11-10.07,11.13-2.67,23.28-2.26,34.13,1.25l.19.06Z"/>
      <path class="cls-1" d="M92.65,74.11c10.56,13.3-16.87,25.92-29.48,31.95-13.49,5.86-36.05,16.39-43.89,4.84-4.04-8.34,1.38-17.7,7.33-24.69,11.19-12.49,29.62-19.67,46.3-19.09,8.83.32,16.15,3.03,19.65,6.89l.09.1Z"/>
      <path class="cls-1" d="M39.04,285.6c18.32-15.53,42.38-11.09,66.87-10.76,16.88.56,33.87.53,50.77.13,10.57-.25,20.78-.62,31-1.01,58.71-4.77,59.14,6.96,58.35,53.73-.63,30.13-2.14,62.69-2.28,92.57-.17,12.75-.1,25.65-2.06,38.26-5.5,40.73-35.83,49.63-72.72,51-20.71,1.07-41.54,1.84-62.31,1.65-19.2-.44-38.59-.96-56.58-7.4-18.85-6.33-26.36-23.3-28.1-44.46-1.66-16.22-1.24-36-.75-53.4.53-17.82,1.2-34.96,1.54-52.52,1.04-23.65-1.44-50.52,16.17-67.7l.11-.1Z"/>
      <path class="cls-1" d="M130.47,137.82c5.39-3.55,10.9.21,13.96,5.16,8.03,11.67,10.25,37.9,9.72,54.75.05,16.57-3.59,45.36-13.52,54.98-5.52,5.82-12.04,3.39-16.23-3.54-13.54-19.65-14.24-97.32,5.98-111.3l.09-.06Z"/>
    </g>
  </g>
</svg>