<?xml version="1.0" encoding="UTF-8"?>
<svg id="Capa_2" data-name="Capa 2" xmlns="http://www.w3.org/2000/svg" viewBox="0 0 267.99 273.8">
  <defs>
    <style>
      .cls-1 {
        fill: #1a1a1e;
      }
    </style>
  </defs>
  <g id="Capa_2-2" data-name="Capa 2">
    <path class="cls-1" d="M232.01,236.99c-2.44,11.04-21.81,20.65-31.49,24.46-39.55,15.58-95.34,15.26-136.41,5.52-13-3.08-43.16-12.42-48.43-25.5l-1.4-202.07-11.64-3.62c-2.9-5.07-4.24-11.13.42-15.63,6.91-6.69,13.68,1.45,11.38-16.59,1.99-6.25,21.89-2.11,27.72-3.27l-.02,16,11.75-.29c.7-3.73.52-7.58,5.22-7.74l132.06,1.94,2.01,8.19,8.84-.14,2.12-17.84,26.01.76,1.86,23.11,15.72,2.27.27,23.69h20.01s0,7.97,0,7.97l-26.01-.97c-10.57-9.41,6.22-24.76-9.97-24.99v204.73ZM34.15,6.29h-11.99v131.83h11.99V6.29ZM210.02,8.28v129.84s14,0,14,0c-.85-39.21,1.1-78.67-.01-117.86-.13-4.65.11-9.35,0-13.99l-14,2.01ZM98.1,16.27h-37.97v23.97h37.97v-23.97ZM108.07,40.23c-.12-5.63.25-11.34.02-16.99-.1-2.43,1.51-7.43-1.98-6.96.12,5.63-.25,11.34-.02,16.99.1,2.43-1.51,7.43,1.98,6.96ZM120.07,16.28c-2.47-3.24-3.62.04-3.99,2.95-.83,6.52.59,14.3.01,21,2.47,3.24,3.62-.04,3.99-2.95.83-6.52-.59-14.3-.01-21ZM130.07,16.28c-2.47-3.24-3.62.04-3.99,2.95-.83,6.52.59,14.3.01,21,2.47,3.24,3.62-.04,3.99-2.95.83-6.52-.59-14.3-.01-21ZM140.06,16.28c-2.47-3.24-3.62.04-3.99,2.95-.83,6.52.59,14.3.01,21,2.47,3.24,3.62-.04,3.99-2.95.83-6.52-.59-14.3-.01-21ZM184.04,16.27h-34.98c-5.86,5.8-1.96,16.26-3,23.97h37.97v-23.97ZM14.15,30.24c-.03-7.32-5.94-7.32-5.98,0h5.98ZM54.12,30.24c1.6-8.28-13.87-7.11-13.94-2.99l13.94,2.99ZM204.02,30.24c.5-7.15-7.25-6.26-11.98-5.97v5.97s11.98,0,11.98,0ZM42.14,38.24v75.9c11.24-2.67,22.18-6.99,33.48-9.48,4.32-.95,11.74.49,14.59-1.39,4.15-2.74-.26-10.42.25-15.55,1.43-14.24,14.62-29.34,29.57-29.57l-1.95-11.92h-63.95v-8.01s-11.99.02-11.99.02ZM204.03,38.24c-15.4-2.76-10.13,3.11-14.91,8.04-6.37,6.57-51.62-2.61-63.04-.06l.28,11.73c22.2,4.7,30.18,22.54,27.91,44.02l49.76,12.18V38.24ZM146.06,84.17c-4.26-23.08-39.15-24.89-45.93-2.95-1.73,5.59,6.17,1.05,8.95.94,12.36-.47,24.9-.48,36.98,2ZM144.08,90.19c-2.66-2.17-41.15-5.21-43.97,3.96,12.65,2.28,28.7,3.89,41.04.08,2.85-.88,3.51,1.18,2.93-4.04ZM146.05,100.17c-15.52,4.7-30.43,5.43-45.93,0l4.85,38.08c11.17,4.77,23.17,4.74,34.67,1.46l6.42-39.53ZM94.1,110.14l-15.98,2.99c4.38,5.72,8.51,8.2,15.98,7.01v-10ZM168.05,112.17l-15.98-2.03v10c2.34,2.33,14.88-3.88,15.98-7.97ZM76.11,122.12c-2.68-12.56-15.58-6.54-23.97-3.96,2.33,13.13,15.72,3.09,23.97,3.96ZM196.03,122.11c-7.11-7.04-22.03-11.73-27.97-.96,9.07,3.22,18.73,4.34,27.97.96ZM44.11,138.1l7.98-8.97-9.94-4.98,1.96,13.96ZM204.01,124.14l-9.97,4.99,8.99,8.97.98-13.96ZM96.08,126.15c-2.33-2.39-45.94,4.27-45.95,15.07l1.19,5.09c12.77,3.63,26.79,8.3,40.05,9.52,15.51,1.42,98.41,1.79,104.51-12.91,2-5.19-4.77-7.09-8.8-8.83-10.71-4.64-24.29-6.63-35.89-8.06l-5.09,19.1c-5.17,4.56-42.76,4.76-46.96-1.05-2.53-3.5-2.76-13.33-3.05-17.92ZM207.44,144.54c-3.95.92-6.79,3.68-9.37,6.56,18.31,18.87,37.18-13.06,9.37-6.56ZM48.13,154.07c-1.28-11.9-15.68-7.2-23.97-7.96-.2,16.73,12.94,11,23.97,7.96ZM44.14,164.06c12.8.94,26.82,13.16,35.94-.98-10.73-5.85-22.03-9.04-33.09-3.17-2,1.06-3.82-1.08-2.85,4.14ZM202.02,160.12l-14.91-4.15-21.04,7.08c7.45,12.19,21.51,4.51,33.03,1.06,2.84-.85,3.53,1.24,2.92-4ZM214.04,186.05c12.19-6.24,10.39-15.99,9.95-27.96l-10.01,7.4.06,20.56ZM32.13,186.05c-.18-11.27,3.52-21.92-9.95-25.97.18,11.27-3.52,21.92,9.95,25.97ZM120.1,164.07c-14.07,3.41-35.75-9.91-37.97,9.99l37.97,2.02v-12.01ZM155.06,164.08c-9.59-.57-19.39.41-28.98,0v11.99s37.96-4.03,37.96-4.03c1.4-1.93-3.29-7.2-4.99-8.21-2.99-1.76-3.39.27-3.99.24ZM69.92,178.25l-31.77-8.18,1.76,22.8,30.2,7.15-.19-21.77ZM206.01,170.08l-29.78,8.16c.53,7.44-2.8,14.7-.13,21.77l29.65-8.25.27-21.69ZM118.09,206.03c-.82-5.2,1.99-20.41-1.88-23.11l-38.11-2.88.03,21.96,39.96,4.02ZM168.06,180.05l-41.76,4.22-.23,21.77,41.76-4.22.23-21.77ZM219.33,213.32c6.84-7.11,4.44-16.27,4.67-25.28l-26.04,15.32.1,20.63c6.26-2.88,16.49-5.7,21.28-10.68ZM47.86,202.3l-25.69-12.26c-4.01,21.82,8.03,27.74,25.94,33.95l-.25-21.7ZM94,212.12l-37.86-6.09.25,18.72c1.64,4.8,31.14,8.11,37.71,9.25l-.1-21.88ZM190.02,206.03l-37.85,6.08-.1,21.86,36.01-6.93c4.01-3,1.15-15.82,1.94-21.01ZM146.08,212.01c-15.65,1.15-30.34,1.15-45.99,0l.23,21.77c14.98,4.31,30.58,1.84,45.73.19l.03-21.96ZM214.04,245.97c11.26-5.96,10.6-16.79,9.95-27.96l-10.01,7.4.06,20.56ZM32.13,245.97c-.18-11.27,3.52-21.92-9.95-25.97-.24,10.33-2.24,22.37,9.95,25.97ZM69.92,238.18l-31.75-10.18.25,20.7c1.5,4.46,26.04,9.6,31.69,11.25l-.19-21.77ZM206.01,230l-31.88,8.06-.08,21.89,31.69-8.27.27-21.68ZM118.1,263.96c-.74-4.93,1.9-18.48-1.88-21.11l-38.1-2.88v21.99s39.98,2,39.98,2ZM168.05,239.97l-41.98,3.99.03,21.98c13.38-3.83,28.11-1.06,41.93-4.01v-21.96Z"/>
  </g>
</svg>