<?xml version="1.0" encoding="UTF-8"?>
<svg id="Capa_2" data-name="Capa 2" xmlns="http://www.w3.org/2000/svg" viewBox="0 0 350.25 287.59">
  <defs>
    <style>
      .cls-1 {
        fill: #57a9d4;
      }

      .cls-2 {
        fill: #1a1a1e;
      }
    </style>
  </defs>
  <g id="Capa_2-2" data-name="Capa 2">
    <path class="cls-2" d="M2.25,77.96c9.2-.39,18.38,8.17,27.02,8.07,11.04-.13,22.09-11.8,36.99-9.21,17.67,3.08,16.51,9.79,16.2,25.83l145,48.78c21.24-12.19,42.16-19.84,63.61-3.59l1.18,25.79,55.75,16.18c.17,1.79,3.12,4.93,1.99,7.98-3.58,3.49-52.57-17.86-60.99-17.77-4.06.04-9.37,3.95-10.94,7.77l70.75,23.82,1.19,6.16-77.94-23.96v52.93l6.6,5.39,71.35,27.59-3.14,7.87-74.34-29.56c-5.23-.53-11.77,8.4-19.99,9.31-4.88.54-20.49-2.04-22.12-6.95l-.65-17.33-159.58-66.36c-7.25-1.38-11.56,6.64-18.95,7.29-19.22,1.68-23.06-8.95-21.24-25.91L.16,146.61c.35-3.18-1.75-7.72,3.08-6.76l28.99,10.01v-41.95l-28.78-9.81c-2.44-1.43-.76-4.49-1.2-6.17,10.78-1.43,19.49,9.1,30,6.97-3.79-7.38-16.97-8.51-24.58-11.49-3.13-1.22-6.45-.54-5.42-5.46-.09-1.32.06-2.67,0-3.99ZM66.2,87.92c-2.65-7.12-15.1-3.41-17.98,2l17.98-2ZM58.21,95.93v75.9h2v-58.92c0-1.73,22.24-9.84,15.98-20.96l-17.98,3.99ZM52.21,175.83v-76.9c-3.58-3.62-9.01-4.94-13.99-4.99v79.9l13.99,2ZM229.88,160.05l-155.67-48.13c-.96,5.19.97,3.52,3.97,4.91,46.08,21.24,102.19,32.22,149.15,52.8,4.93,1.51,2.5-6.78,2.55-9.58ZM230.09,177.83l-161.89-55.93v45.94l161.89,63.92v-53.93ZM276.06,147.88c-10.64-3.05-23.94-2.57-31.98,5.95,11.96,4.44,17.72,4.03,29.14-1.79,2.1-1.07,3.76,1.03,2.84-4.16ZM262.07,164.84v88.88c1.3.15,4-2.65,4-3v-63.92l17.66-11.3.32-19.65-21.97,8.98ZM254.07,163.84l-17.99-3.99v94.88c4.26,4.22,12.13,3.82,17.99,4.99v-95.88Z"/>
    <path class="cls-2" d="M2.25,22.03c2.69-1.87,5.74-1.84,8.86-2.08,88.78-6.82,186.32,5.21,276.02.18C306.82,10.12,326.92-.98,350.01.07l-.04,7.92c-12.51.85-24.24,2.47-35.91,7.09-10.23,4.04-17.22,11.1-26.24,15.72-17.01,8.72-37.22,11.19-51.73,24.2l113.9,1c.79,2.38-1.86,4.75-1.99,5.98h-125.9c-.97-8.94,6.27-12.13,12.18-16.78l35.77-17.15-269.8-.02c.1-1.32-.06-2.67,0-3.99l2-2Z"/>
    <path class="cls-1" d="M.25,24.03l2-2-2,2Z"/>
  </g>
</svg>