<?xml version="1.0" encoding="UTF-8"?>
<svg id="Capa_2" data-name="Capa 2" xmlns="http://www.w3.org/2000/svg" viewBox="0 0 846.84 507.74">
  <defs>
    <style>
      .cls-1 {
        fill: #00f403;
      }
    </style>
  </defs>
  <g id="Capa_2-2" data-name="Capa 2">
    <g>
      <path class="cls-1" d="M678.77,493.54c-7.62-6.22-13.65-15.3-18.18-25.95-2.88-6.71-5.21-14-7.38-21.43-20.8-85.15-70.8-161.13-141.98-214.78-8.66-6.89-20.69-16.36-26.26-23.5-12.25-16.19,13.81-10.15,24.18-6.94,128.88,42.21,308.35,253.28,215.45,299.21-5.34,2.16-11.38,3.45-17.52,3.48-9.99.1-20.01-3.24-28.19-9.98l-.13-.11Z"/>
      <path class="cls-1" d="M560.43,463.24c-.82-7.95-1.12-16.24-1.49-24.33-1.32-61.39-17.36-111.01-55.17-158.77-4.63-7.68-48.48-52.99-34.6-55.65,3.09-.47,8.92,1.52,16.34,5.58,9.35,5.14,18.7,11.94,27.4,19,86.94,69.72,189.37,236.48,91.42,258.28-28.52,3.54-41.67-16.99-43.88-43.88l-.02-.22Z"/>
      <path class="cls-1" d="M296.48,493.57c-26.81-27.22-14.68-81.29,27.73-82.01,35.41-.84,55.6,34.9,44.5,66.76-10.34,30.17-50.1,36.71-72.1,15.38l-.13-.13Z"/>
      <path class="cls-1" d="M445.03,439.82c-7.52-.8-13.79-11.2-15.55-21.09-4.02-18.78-.67-44.2,7.68-62.16,17.73-37.09,44.15-27.03,46.04,10.92.95,21.42-4.17,43.93-16.69,60.56-5.01,6.5-13.12,13.16-21.34,11.79l-.13-.02Z"/>
      <path class="cls-1" d="M390.32,485.92c-6.83-1.49-10.98-14.87-11.71-23.64-2.24-20.41,1.32-46.16,8.18-65.96,3.67-10.39,13.55-31.68,25.41-24.22,9.7,7.95,10.73,27.55,10.83,39.79-.49,20.97-3.91,41.8-13.65,59.87-3.96,6.83-10.65,16.1-18.96,14.19l-.1-.03Z"/>
      <path class="cls-1" d="M792.26,492.87c-8.23-5.77-15.55-14.96-21.65-26.07-3.77-6.82-7.1-14.32-10.25-21.98-34.25-92.31-93.61-173.31-179.3-227.52-8.43-5.4-17.7-10.85-26.01-15.97-7.58-4.66-14.08-8.86-18.49-12.27-3.15-2.52-4.94-3.95-6.27-6.24-2.87-6.7,17.81-.92,25.06,1.26,135.09,43.43,347.14,247.04,277.96,310.12-12.26,8.62-27.85,8.06-40.93-1.23l-.13-.09Z"/>
      <path class="cls-1" d="M118.48,491.92c-15.97-13.53-18.32-40.98-8.16-58.59,7.03-12.74,20.36-20.22,34.82-20.98,32.98-1.79,54.24,28.21,45.73,59.23-8.05,30.96-49.25,40.22-72.27,20.45l-.13-.11Z"/>
      <path class="cls-1" d="M84.7,489.67c-14.57,15.3-42.54,16.97-59.26,4.26-15.79-11.3-20.5-33.85-14.34-51.83,7.55-25.45,39.14-37.28,62.6-26.72,28.3,12.05,31.11,53.68,11.12,74.17l-.12.13Z"/>
      <path class="cls-1" d="M85.25,330.52c20.15,20.06,16.28,61.44-12.14,72.28-30.59,11.56-63.79-8.63-64.72-42.07-.52-14.25,5.78-28.03,18-35.51,16.84-10.85,44.5-9.48,58.74,5.18l.12.12Z"/>
      <path class="cls-1" d="M295.28,299.13c-16.2-14.47-19.43-42.26-7.44-60.21,8.46-13.28,24.78-20.2,40.45-19.05,33.57,1.76,52.48,37.71,39.88,67.42-12.17,28.51-51.35,31.78-72.76,11.97l-.14-.13Z"/>
      <path class="cls-1" d="M23,232.1c15.38-14.67,43.08-15.1,58.96-1.06,14.6,12.18,18.76,34.6,12.22,52.17-8.23,24.55-39.85,34.55-62.41,24.02-28.59-12.61-30.29-55.08-8.9-75.01l.13-.12Z"/>
      <path class="cls-1" d="M633.63,75.5c-17.17,25.78-63.14,38.48-75.07,1.73-9.45-30.7,8.39-69,41.29-76.22,44.47-9.05,55.13,44.46,33.9,74.32l-.11.16Z"/>
      <path class="cls-1" d="M295.53,393.33c-15.87-16.18-16.23-46.38-.86-62.89,12.16-13.93,33.83-18.02,50.73-10.88,23.26,9.25,32.77,39.08,23.54,61.62-11.44,29.66-52.28,34.3-73.28,12.29l-.13-.13Z"/>
      <path class="cls-1" d="M116.56,233.34c18.9-20.36,56.29-17.91,69.51,7.65,13.06,24.03,2.95,58.7-24.47,67.66-17.73,6.57-39.82,1.4-50.35-14.74-12.1-17.31-9.49-45.26,5.19-60.44l.13-.13Z"/>
      <path class="cls-1" d="M295.92,138.31c18.83-20.51,58.09-17.91,70.44,8.53,14.02,29.91-5.62,66.9-40.02,68.22-41.56,1.96-55.77-48.82-30.54-76.62l.12-.13Z"/>
      <path class="cls-1" d="M178.67,329.98c20.34,20.67,15.46,64.73-14.83,73.7-31.61,9.25-61.22-13.56-58.76-46.83.98-14.14,8.31-27.27,20.86-33.92,16.11-9.05,39.68-6.59,52.61,6.93l.12.12Z"/>
      <path class="cls-1" d="M631.12,175.28c-19.13,21.09-55.28,14.5-68.25-10.05-7.99-14.34-6.52-32.86,2.99-46.14,11.51-16.46,34.54-26.71,53.22-22.1,32.78,8.69,31.73,57.2,12.17,78.15l-.13.14Z"/>
      <path class="cls-1" d="M264.95,490.11c-20.9,21.78-57.4,13.76-64.94-16.22-7.45-26.81,6.97-60.29,37.27-61.87,40.38-1.97,51.65,52.23,27.79,77.96l-.12.13Z"/>
      <path class="cls-1" d="M211.25,297.56c-22.78-26.01-13.34-81,27.76-77.82,29.12,2.41,43.54,34.75,37.08,61-6.92,31.11-43.41,40.39-64.72,16.96l-.12-.14Z"/>
      <path class="cls-1" d="M212.55,397.19c-26-24-15.35-81.31,25.31-79.5,31.41,1.33,46.81,38.65,35.92,65.65-9.44,25.05-41.63,31.45-61.09,13.97l-.13-.12Z"/>
      <path class="cls-1" d="M495.6,48.39c9.59-21.57,36.13-39.69,50.21-12.7,10.44,21.31,5.66,58.7-14.41,75.91-19.19,16.76-38.87,6.9-42.54-17.53-2.32-15.12.26-31.75,6.65-45.48l.09-.2Z"/>
      <path class="cls-1" d="M440.57,67.89c6.27-11.77,18.56-24.51,30.76-15.42,9.75,8.69,10.84,24.05,10.64,36.62-.25,20.77-11.73,60.02-33.99,64.03-11.05.52-14.77-10.92-16.67-21.84-2.83-19.69-.15-45.38,9.16-63.2l.1-.19Z"/>
      <path class="cls-1" d="M472.11,325.4c-6.45,10.76-17.72,22.34-30.37,18.58-21.73-8.41-13.27-64.78-3.61-83.01,11.44-21.94,29.28-14.03,37.56,5.92,3.19,7.45,5.06,16.31,5.11,25.11.11,11.64-2.83,23.26-8.59,33.21l-.11.19Z"/>
      <path class="cls-1" d="M514.57,318.26c10.64,5.21,18.67,20.77,21.96,33.18,4.24,15.75,4.38,33.85-5.56,47.33-8.08,11.19-23.52,15.85-33.73,6.95-8.69-7.68-11.34-19.49-12.43-31.17-1.27-15.53,1.13-36.93,9.19-48.94,4.63-7.41,12.88-11.35,20.42-7.41l.14.07Z"/>
      <path class="cls-1" d="M412.03,275.46c12.72,9.94,11.23,40.24,9.21,57.54-2.38,17.92-7.31,38.94-18.2,52.47-6.25,7.81-14.46,9.49-19.14.15-6.2-13.85-5.37-27.76-4.14-44.88,1.71-18.59,6.98-44.6,16.66-58.11,3.35-4.89,9.49-10.89,15.52-7.24l.09.06Z"/>
      <path class="cls-1" d="M412.29,180.6c18.32,12.86,8.68,72.1.35,91.39-3.84,9.45-12.54,27.01-23.37,22.9-11.69-6.95-11.01-32.35-9.77-48.07,1.69-19.45,7.69-47.53,19.19-61,3.18-3.92,8.71-7.91,13.5-5.26l.09.05Z"/>
      <path class="cls-1" d="M412.38,86.4c12.71,9.18,11.49,38.67,9.57,55.27-2.31,17.79-7.45,38.52-18.81,51.53-10.66,11.73-19.81,4.85-23-8.86-2.21-8.85-2.37-18.86-1.81-28.13,1.58-20.24,5.32-40.25,14.95-57.72,3.98-6.67,10.85-16.18,19.01-12.14l.09.05Z"/>
      <path class="cls-1" d="M79.55,207.17c-4.62,9.42-20.84,10.99-31.98,10.25-12.73-.9-25.81-4.54-35.1-13.42-10.27-9.79-14.11-25.29-11.84-39.03,1.2-8.81,6.95-19.17,15.72-19.19,14.72-.22,32.07,15.85,43.26,25.88,9.18,8.96,24.56,23.87,19.99,35.42l-.05.11Z"/>
      <path class="cls-1" d="M184.16,145.95c9.37,3.99,10.76,19.68,10.07,30.34-.84,12.05-4.4,24.57-12.61,33.48-4.81,5.26-11.11,9.03-17.93,11.07-14.31,4.28-38,2.45-40.73-12.14-2.03-15.82,25.49-42.41,37.23-52.9,6.22-5.58,17.38-12.86,23.86-9.89l.11.04Z"/>
      <path class="cls-1" d="M218.15,211.95c-8.89-16.63,19.77-43.07,33.18-52.05,32.12-21.76,39.95,19.76,24.89,42.01-6.81,10.37-18.59,16.65-30.75,18.39-9.63,1.5-22.44-.18-27.25-8.23l-.07-.12Z"/>
      <path class="cls-1" d="M435.98,169.28c7.12,2.14,4.52,76.48-.52,82.84-2.4.85-3.16-12.4-3.84-22.31-.65-9.78-1.74-54.43,4.32-60.51h.04Z"/>
      <path class="cls-1" d="M490.71,278.98c4.07-1.85,8.67.15,11.68,3.26,5.76,5.81,8.34,15.66,6.94,23.37-1.83,11.34-12.5,14.44-19.76,5.08-6.65-8.05-9.25-26.07,1-31.64l.14-.06Z"/>
      <path class="cls-1" d="M543.58,115.36c3.75-.73,5.12,11.28,5.63,14.27,1.28,9.97,2.38,35.06-3.39,41.87-3.46,2.04-5.13-8.59-5.76-12.26-1.54-8.7-2.75-38.91,3.47-43.85l.06-.02Z"/>
      <path class="cls-1" d="M641.92,192.78c6.17,3.87,6.38,10.92-.66,13.71-6.03,2.51-14.43,1.09-19.41-2.72-2.98-2.15-5.37-6.19-3.23-9.65,4.76-6.73,16.85-5.55,23.12-1.45l.18.12Z"/>
    </g>
  </g>
</svg>