<?xml version="1.0" encoding="UTF-8"?>
<svg id="Capa_2" data-name="Capa 2" xmlns="http://www.w3.org/2000/svg" viewBox="0 0 291.28 390.63">
  <defs>
    <style>
      .cls-1 {
        fill: #00ac61;
      }

      .cls-2 {
        fill: #00f403;
      }
    </style>
  </defs>
  <g id="Capa_2-2" data-name="Capa 2">
    <g>
      <path class="cls-2" d="M63.34,159.89c9.77-1.09,19.9-.82,29.77-.71,40.67.2,81.42.42,122.05.78,59.52,1.4,53.27,39.47,53.65,86.77-.25,22.81,1.3,47.55-7.81,68.72-22.5,52.3-118.34,49.76-166.73,41.16-27.21-4.97-56.43-13.47-67.98-40.28-9.9-24.01-6.62-51.13-7.28-76.78.44-38.41-4.93-75.18,44.15-79.64l.18-.02Z"/>
      <path class="cls-2" d="M4.56,87.05c4.81,8.57,4.09,17.89,5.85,34.77,1.93,30.38.4,61.02-.77,91.57-10.22,136.51,31.56,172.28,166.42,160.86,72.83-5.84,100.83-48.91,100.91-118.33,1.36-52.03-7.17-112.22,1.81-162.45,3.05-8.12,4.52,9.89,4.96,12.01,3.64,36.13,5.31,85.34,6.97,121.97,3.94,81.08-10.38,146.65-100.43,159.63-51.62,7.73-123.46,5.03-163.98-30.53C3.3,334.65.87,301.48.24,271.22c-.44-46.57-.15-94.42-.06-141.01.33-10.6-.27-39.01,4.36-43.17h.02Z"/>
      <path class="cls-2" d="M215.53,89.88c-22.27,4.76-45.5,5.34-68.2,5.37-21.11-.1-40.33-.74-62.32-3.25-27.35-3.68-76.04-10.44-78.11-42.3-.18-23.64,26.84-37.32,48.04-42.1,87.01-23.3,309.9,9.25,202.64,67.32-12.6,6.61-27.36,11.84-41.85,14.93l-.2.04ZM107.2,13.88c-24.15,2.4-50.92,7.47-72.94,16.98-76.01,34.96,96.43,66.47,184.5,47.22,14.25-3.07,29.99-7.27,40.85-16.64,19.8-18.26-5.22-34.08-23.49-39.21-18.88-5.85-38.4-8.07-58.24-9.32-23.57-1.32-47.42-1.23-70.46.95l-.21.02Z"/>
      <path class="cls-1" d="M207.07,93.24c2,2.98-3.72,3.91-5.19,2.19-2.39-2.85,3.51-4.12,5.06-2.32l.13.13Z"/>
    </g>
  </g>
</svg>