<?xml version="1.0" encoding="UTF-8"?>
<svg id="Capa_2" data-name="Capa 2" xmlns="http://www.w3.org/2000/svg" viewBox="0 0 242.57 276.13">
  <defs>
    <style>
      .cls-1 {
        fill: #1a1a1e;
      }
    </style>
  </defs>
  <g id="Capa_2-2" data-name="Capa 2">
    <path class="cls-1" d="M78.92,262.13v14s-7.99,0-7.99,0l-.02-15.97-30.94-6.04-1.03,14.02h-7.98s-.27-17.72-.27-17.72C4.99,243.05,1.79,232.35.89,207.29c-.78-21.6,2.39-44.34,2.17-66.1-.31-31.33-4.96-64.31-2.17-95.85C2.73,24.49,17.5,18.06,35.38,11.9,81.98-4.16,183.26-6.49,225.45,20.81c6.67,4.31,15.34,9.85,15.39,18.58-4.19,59.18,5.42,125.6.05,183.9-2.16,23.42-38.31,32.37-57.64,36.27-33.79,6.81-70.17,5.57-104.33,2.58ZM79.02,66.29c39.45,5.67,100.75,6.63,137.15-11.53,14.16-7.06,23.21-14.76,7.63-26.31C187.14,1.28,57.19,2.56,19.57,28.06c-23.68,16.05,8.86,28.63,11.36,26.35.72-21.7,30.46-19.45,27.99,1.98-8.48,1.98-6.27-4.79-8.52-7.39-6.49-7.5-14.29,4.11-11.39,11.33l31.83,3.97c-.68-22.53,29.12-23.35,28.05.08l-7.86-.09-2.03-9.08-10.06-.82.09,11.9ZM10.96,56.4c0,31.26,0,62.61,0,93.88,0,18.3.3,36.69.08,55.01-.07,6.07-2.88,11.01-2.01,17.72,1.49,11.39,11.75,16.69,21.9,19.14-.09-32.59.16-65.27.01-97.86-.12-26.16.37-52.4-.32-78.58-5.22-5.65-12.85-6.09-19.66-11.31-.09-.07.39-1.25-1-1.99l1,3.98ZM232.8,150.28c.2-31.93-.13-63.95-.02-95.87-46.08,25.22-102.76,27.74-153.86,19.98-.08,19.94.06,39.97-.01,59.91-.15,39.25-.61,78.88.87,117.97,36.68,5.88,79.14,5.15,115.48-4.69,10.63-2.88,30.03-8.39,35.29-18.66,4.89-9.58,2.16-63.43,2.26-78.64ZM70.92,88.37c-.37-4,1.48-12.82-1.88-15.11l-30.08-6.87v17.96s31.96,4.02,31.96,4.02ZM70.81,96.45l-31.88-4.1v16s31.97,3.99,31.97,3.99l-.1-15.88ZM70.81,120.42l-31.88-4.1v16s31.98,4,31.98,4l-.1-15.89ZM70.81,144.39l-31.85-6.09v17.96s31.96,4.02,31.96,4.02l-.1-15.89ZM70.81,168.36l-31.88-4.1.02,15.97,31.96,4.02-.1-15.89ZM70.7,192.44l-31.76-4.21.02,15.97,31.96,4.02-.22-15.78ZM70.82,216.29l-31.89-4.1v16c6.87-2.74,27.08,7.02,30.81,4.16l1.08-16.06ZM70.7,240.37l-31.76-4.21v12c11.17-1.78,21.06,3.46,31.97,3.99l-.21-11.78Z"/>
  </g>
</svg>