<?xml version="1.0" encoding="UTF-8"?>
<svg id="Capa_2" data-name="Capa 2" xmlns="http://www.w3.org/2000/svg" viewBox="0 0 877.04 392.02">
  <defs>
    <style>
      .cls-1 {
        fill: #00fe00;
      }
    </style>
  </defs>
  <g id="Capa_1-2" data-name="Capa 1">
    <path class="cls-1" d="M79.04.02v76.5l1.5,1.5h239.5V1.52l1.66-1.34c42.76-.47,79.38,34.89,79.34,77.84h243v154h150.5c.3,0,.77,1.27,1.5,1v-27.5c0-3.66,7.2-18.63,9.59-22.41,10.79-16.99,25.06-25.01,44.92-27.08,4.27-.45,18.46-1.56,22.04-1.06,1.32.18,4.45,1.27,4.45,2.55v77l-1.5,1.5h-75c-.3,0-.77-1.27-1.5-1v155.5l-1.5,1.5h-154c-.33,0-1.52-1.32-2.5-1v-155h-240v155c-.98-.32-2.17,1-2.5,1h-154l-1.5-1.5v-155.5c-.73-.27-1.2,1-1.5,1h-84L79.04,80.02H.04C-1.36,36.62,35.5-1.01,79.04.02ZM398.04,80.02h-74.5l-76.5,152h151V80.02Z"/>
  </g>
</svg>