<?xml version="1.0" encoding="UTF-8"?>
<svg id="Capa_2" data-name="Capa 2" xmlns="http://www.w3.org/2000/svg" viewBox="0 0 372.19 296.42">
  <defs>
    <style>
      .cls-1 {
        fill: #0ef607;
      }
    </style>
  </defs>
  <g id="Capa_2-2" data-name="Capa 2">
    <g>
      <path class="cls-1" d="M226.35,33.42v23.54c0,1.32,2.36,7.05,3.8,8.35h34.18l1.52,65.31h40.26l2.28,2.28v48.61c0,15.71-30.74,43.29-46.33,43.29h-36.46c-2.17,1.33-2.1,3.03-2.36,5.24-1.31,11.18,2.55,58.24-1.31,63.66s-24.1-.65-30.52.98l-1.43-84.39-2.36-5.24h-81.27l-2.27-19.74c-8.8,21.95-22.72,38.17-47.86,39.48v67.59l-2.28,2.28h-28.86l-2.49-199.53c-1.25-3.8-12-3.8-13.25,0-.05,27.27-.65,54.6-.27,81.87.17,12.48,7.11,32.55-9.05,38.67V84.3l2.28-2.28h144.32c3.8,0,3.75-9.78,4.49-12.22,3.48-11.45,10-21.71,20.07-28.54,15.07-10.24,37.78-9.69,55.2-7.85Z"/>
      <path class="cls-1" d="M335.73,123.03h-62.28v-61.52c0-.27-3.53-3.8-3.8-3.8h-30.38c-1.51-.96-1.97-2.1-2.28-3.8-.99-5.41-.55-24.24.37-30.01,1.05-6.68,8.25-22.99,16.34-22.39v30.38h99.5l2.28-2.28V0c4.5.86,10.25,10.55,11.98,14.6,1.34,3.12,4.73,15.34,4.73,18.06v22.78l-2.28,2.28h-31.9l-2.28,2.28v63.04Z"/>
      <path class="cls-1" d="M115.45,294.67c-5.27,1.48-33.42,3.95-33.42-2.28v-60.76c8.73-8.18,20.56-25.79,33.42-16.71v79.74Z"/>
      <polygon class="cls-1" points="273.44 232.4 273.44 296.19 241.54 296.19 241.54 234.67 243.82 232.4 273.44 232.4"/>
    </g>
  </g>
</svg>