<?xml version="1.0" encoding="UTF-8"?>
<svg id="Capa_2" data-name="Capa 2" xmlns="http://www.w3.org/2000/svg" viewBox="0 0 396.24 231.08">
  <defs>
    <style>
      .cls-1 {
        fill: #0ef607;
      }
    </style>
  </defs>
  <g id="Capa_2-2" data-name="Capa 2">
    <g>
      <path class="cls-1" d="M396.24,160.8c-11.29-3.67-7.27-16.69-7.22-24.79.13-21.77-.06-43.56-.22-65.32-1.18-3.6-10.35-1.46-13.54-2.03-.8.24-2.04,2.74-2.04,3.07v158.14h-46.06c.89-9.2-.66-18.24-1.32-27.27-.12-1.66,2.44-9.09-1.71-9.09h-132.11l-1.82,1.82v34.54h-46.06v-33.33c0-.46-2.38-2.52-3.28-2.78-1.39-.41-12.23-1.43-14.32-1.46-18.06-.24-26.04,3.92-43.81-5.86-12.63-6.95-29.49-27.18-29.49-42.01v-33.33h49.09l1.82-1.82V38.4l33.94-1.21c.85-9.07-.45-15.7-5.07-23.42-2.39-3.99-6.97-7.26-8.27-11.73h201.8c1.82,0,14.39,5,16.75,6.27,16.06,8.63,24.78,24.05,29.12,41.17.98,3.87-.15,8.2,2.61,10.72h19.39l1.82,1.82v98.76Z"/>
      <path class="cls-1" d="M1.74,31.13c-5.76-1.71,4.42-17.81,7.28-20.6,1.9-1.84,8.61-6.04,11.15-7.03C31.46-.89,81.03-.32,95.1.79c10.16.8,21.58,4.97,27.75,13.45,1.46,2,9.46,16.89,4.93,16.89h-29.09l-1.82,1.82v69.07l-1.82,1.82H29.61c-.48,0-7.96-2.52-9.1-3.02C-4.1,89.81,3.42,52.01,29.69,48.17c1.12-1.57,1.46-15.27-1.29-17.04H1.74Z"/>
      <polygon class="cls-1" points="130.81 199.57 130.81 229.26 129 231.08 83.55 231.08 83.55 199.57 130.81 199.57"/>
      <polygon class="cls-1" points="266.56 231.08 266.56 199.57 312.01 199.57 313.83 201.39 313.83 229.26 312.01 231.08 266.56 231.08"/>
    </g>
  </g>
</svg>